<svg width="81" height="81" viewBox="0 0 81 81" fill="none" xmlns="http://www.w3.org/2000/svg">
<path d="M40.333 6C45.0743 6 49.5433 6.90068 53.7295 8.70703C57.8962 10.505 61.531 12.95 64.624 16.043C67.717 19.136 70.162 22.7708 71.96 26.9375C73.7662 31.1235 74.667 35.592 74.667 40.333C74.667 45.0742 73.7663 49.5434 71.96 53.7295C70.162 57.8962 67.7171 61.531 64.624 64.624C61.531 67.7171 57.8962 70.162 53.7295 71.96C49.5434 73.7663 45.0742 74.667 40.333 74.667C35.592 74.667 31.1235 73.7662 26.9375 71.96C22.7708 70.162 19.136 67.717 16.043 64.624C12.95 61.531 10.505 57.8962 8.70703 53.7295C6.90068 49.5433 6 45.0743 6 40.333C6.00004 35.592 6.90078 31.1235 8.70703 26.9375C10.505 22.7708 12.9499 19.136 16.043 16.043C19.136 12.9499 22.7708 10.505 26.9375 8.70703C31.1235 6.90078 35.592 6.00004 40.333 6ZM40.333 14.667C33.1483 14.6671 27.0992 17.1489 22.124 22.124C17.1489 27.0992 14.6671 33.1483 14.667 40.333C14.667 47.5178 17.1488 53.5678 22.124 58.543C27.0991 63.518 33.1484 65.9999 40.333 66C47.5178 66 53.5678 63.5182 58.543 58.543C63.5182 53.5678 66 47.5178 66 40.333C65.9999 33.1484 63.518 27.0991 58.543 22.124C53.5678 17.1488 47.5178 14.667 40.333 14.667ZM44.667 22.667V36H58V44.667H44.667V58H36V44.667H22.667V36H36V22.667H44.667Z" fill="#CDAEF2" stroke="black" stroke-width="2"/>
</svg>
