<svg width="345" height="48" viewBox="0 0 345 48" fill="none" xmlns="http://www.w3.org/2000/svg">
<rect x="1" y="1" width="343" height="46" rx="9" fill="#F15BB5"/>
<rect x="1" y="1" width="343" height="46" rx="9" stroke="black" stroke-width="2"/>
<path d="M110.424 13.1H113.208L121.368 35.5H118.984L117.24 30.7H106.408L104.664 35.5H102.28L110.424 13.1ZM107.224 28.46H116.408L111.816 15.852L107.224 28.46ZM130.94 21.74H127.116L127.1 35.5H124.86L124.876 21.74H121.98V19.5H124.876L124.86 14.476H127.1L127.116 19.5H130.94V21.74ZM141.971 21.74H138.147L138.131 35.5H135.891L135.907 21.74H133.011V19.5H135.907L135.891 14.476H138.131L138.147 19.5H141.971V21.74ZM151.429 35.916C149.957 35.916 148.613 35.5373 147.397 34.78C146.191 34.0227 145.226 33.0093 144.501 31.74C143.786 30.46 143.429 29.0467 143.429 27.5C143.429 26.3267 143.637 25.2333 144.053 24.22C144.469 23.196 145.039 22.3 145.765 21.532C146.501 20.7533 147.354 20.1453 148.325 19.708C149.295 19.2707 150.33 19.052 151.429 19.052C152.613 19.052 153.701 19.2867 154.693 19.756C155.695 20.2253 156.554 20.8813 157.269 21.724C157.994 22.5667 158.538 23.5533 158.901 24.684C159.274 25.8147 159.429 27.036 159.365 28.348H145.797C145.925 29.3613 146.245 30.268 146.757 31.068C147.279 31.868 147.941 32.5027 148.741 32.972C149.551 33.4307 150.447 33.6653 151.429 33.676C152.495 33.676 153.455 33.3987 154.309 32.844C155.173 32.2893 155.866 31.5267 156.389 30.556L158.661 31.084C158.021 32.5027 157.055 33.6653 155.765 34.572C154.474 35.468 153.029 35.916 151.429 35.916ZM145.733 26.54H157.109C157.034 25.548 156.73 24.6413 156.197 23.82C155.674 22.988 154.997 22.3267 154.165 21.836C153.333 21.3347 152.421 21.084 151.429 21.084C150.437 21.084 149.53 21.3293 148.709 21.82C147.887 22.3 147.215 22.956 146.693 23.788C146.17 24.6093 145.85 25.5267 145.733 26.54ZM176.06 25.596V35.5H173.82V26.044C173.82 25.1693 173.606 24.3747 173.18 23.66C172.753 22.9453 172.182 22.3747 171.468 21.948C170.753 21.5213 169.958 21.308 169.084 21.308C168.22 21.308 167.425 21.5213 166.7 21.948C165.985 22.3747 165.414 22.9453 164.988 23.66C164.561 24.3747 164.348 25.1693 164.348 26.044V35.5H162.108V19.5H164.348V21.708C164.913 20.8973 165.649 20.252 166.556 19.772C167.462 19.292 168.449 19.052 169.516 19.052C170.721 19.052 171.82 19.3453 172.812 19.932C173.804 20.5187 174.593 21.308 175.18 22.3C175.766 23.292 176.06 24.3907 176.06 25.596ZM192.119 11.5H194.359V35.5H192.119V32.508C191.565 33.532 190.802 34.3587 189.831 34.988C188.871 35.6067 187.73 35.916 186.407 35.916C185.245 35.916 184.157 35.6973 183.143 35.26C182.13 34.8227 181.234 34.22 180.455 33.452C179.687 32.6733 179.085 31.7773 178.647 30.764C178.21 29.7507 177.991 28.6627 177.991 27.5C177.991 26.3373 178.21 25.2493 178.647 24.236C179.085 23.212 179.687 22.316 180.455 21.548C181.234 20.7693 182.13 20.1613 183.143 19.724C184.157 19.2867 185.245 19.068 186.407 19.068C187.73 19.068 188.871 19.3827 189.831 20.012C190.802 20.6307 191.565 21.4467 192.119 22.46V11.5ZM186.423 33.74C187.565 33.74 188.546 33.4627 189.367 32.908C190.189 32.3427 190.818 31.5853 191.255 30.636C191.703 29.6867 191.927 28.6413 191.927 27.5C191.927 26.3267 191.703 25.2707 191.255 24.332C190.807 23.3827 190.173 22.6307 189.351 22.076C188.53 21.5213 187.554 21.244 186.423 21.244C185.293 21.244 184.263 21.5267 183.335 22.092C182.407 22.6467 181.666 23.3987 181.111 24.348C180.557 25.2973 180.279 26.348 180.279 27.5C180.279 28.6627 180.562 29.7187 181.127 30.668C181.693 31.6067 182.439 32.3533 183.367 32.908C184.306 33.4627 185.325 33.74 186.423 33.74ZM198.201 19.5H200.441V35.5H198.201V19.5ZM199.337 16.7C198.975 16.7 198.665 16.5827 198.409 16.348C198.164 16.1027 198.041 15.7987 198.041 15.436C198.041 15.0733 198.164 14.7747 198.409 14.54C198.665 14.2947 198.975 14.172 199.337 14.172C199.689 14.172 199.988 14.2947 200.233 14.54C200.489 14.7747 200.617 15.0733 200.617 15.436C200.617 15.7987 200.495 16.1027 200.249 16.348C200.004 16.5827 199.7 16.7 199.337 16.7ZM218.185 25.596V35.5H215.945V26.044C215.945 25.1693 215.731 24.3747 215.305 23.66C214.878 22.9453 214.307 22.3747 213.593 21.948C212.878 21.5213 212.083 21.308 211.209 21.308C210.345 21.308 209.55 21.5213 208.825 21.948C208.11 22.3747 207.539 22.9453 207.113 23.66C206.686 24.3747 206.473 25.1693 206.473 26.044V35.5H204.233V19.5H206.473V21.708C207.038 20.8973 207.774 20.252 208.681 19.772C209.587 19.292 210.574 19.052 211.641 19.052C212.846 19.052 213.945 19.3453 214.937 19.932C215.929 20.5187 216.718 21.308 217.305 22.3C217.891 23.292 218.185 24.3907 218.185 25.596ZM233.796 19.5H236.036V36.092C236.036 37.116 235.812 38.076 235.364 38.972C234.927 39.868 234.33 40.652 233.572 41.324C232.826 42.0067 231.972 42.54 231.012 42.924C230.052 43.308 229.055 43.5 228.02 43.5C226.911 43.5 225.839 43.244 224.804 42.732C223.77 42.2307 222.868 41.5587 222.1 40.716C221.343 39.8733 220.804 38.94 220.484 37.916L222.548 36.972C222.751 37.772 223.13 38.492 223.684 39.132C224.25 39.7827 224.911 40.2947 225.668 40.668C226.436 41.052 227.22 41.244 228.02 41.244C228.756 41.244 229.466 41.1053 230.148 40.828C230.842 40.5613 231.46 40.1933 232.004 39.724C232.559 39.2547 232.996 38.7053 233.316 38.076C233.636 37.4573 233.796 36.796 233.796 36.092V32.556C233.242 33.5587 232.49 34.3693 231.54 34.988C230.602 35.6067 229.508 35.916 228.26 35.916C227.14 35.916 226.084 35.6973 225.092 35.26C224.111 34.8227 223.247 34.22 222.5 33.452C221.754 32.6733 221.167 31.7773 220.74 30.764C220.324 29.7507 220.116 28.6627 220.116 27.5C220.116 26.3373 220.324 25.2493 220.74 24.236C221.167 23.212 221.754 22.316 222.5 21.548C223.247 20.7693 224.111 20.1613 225.092 19.724C226.084 19.2867 227.14 19.068 228.26 19.068C229.508 19.068 230.602 19.3773 231.54 19.996C232.49 20.604 233.242 21.4147 233.796 22.428V19.5ZM228.276 33.74C229.386 33.74 230.34 33.452 231.14 32.876C231.951 32.3 232.575 31.5373 233.012 30.588C233.45 29.6387 233.668 28.6093 233.668 27.5C233.668 26.3587 233.444 25.3187 232.996 24.38C232.559 23.4307 231.935 22.6733 231.124 22.108C230.314 21.532 229.364 21.244 228.276 21.244C227.188 21.244 226.196 21.5267 225.3 22.092C224.415 22.6467 223.711 23.3987 223.188 24.348C222.666 25.2973 222.404 26.348 222.404 27.5C222.404 28.652 222.671 29.7027 223.204 30.652C223.738 31.5907 224.447 32.3427 225.332 32.908C226.228 33.4627 227.21 33.74 228.276 33.74ZM239.553 28.78V13.1H241.521V28.78H239.553ZM240.545 35.916C240.182 35.916 239.873 35.788 239.617 35.532C239.371 35.2867 239.249 34.9827 239.249 34.62C239.249 34.268 239.371 33.9693 239.617 33.724C239.873 33.4787 240.182 33.356 240.545 33.356C240.886 33.356 241.179 33.4787 241.425 33.724C241.67 33.9693 241.793 34.268 241.793 34.62C241.793 34.9827 241.67 35.2867 241.425 35.532C241.179 35.788 240.886 35.916 240.545 35.916Z" fill="black"/>
</svg>
