<svg width="45" height="45" viewBox="0 0 45 45" fill="none" xmlns="http://www.w3.org/2000/svg">
<path d="M8.5569 33.5608C10.4461 32.1162 12.5575 30.9771 14.8912 30.1436C17.2249 29.3102 19.6698 28.8934 22.2257 28.8934C24.7817 28.8934 27.2265 29.3102 29.5602 30.1436C31.8939 30.9771 34.0054 32.1162 35.8945 33.5608C37.191 32.0421 38.2005 30.3196 38.9228 28.3934C39.6451 26.4671 40.0063 24.4113 40.0063 22.2257C40.0063 17.299 38.2745 13.1039 34.811 9.64041C31.3475 6.1769 27.1524 4.44514 22.2257 4.44514C17.299 4.44514 13.1039 6.1769 9.64041 9.64041C6.1769 13.1039 4.44514 17.299 4.44514 22.2257C4.44514 24.4113 4.80631 26.4671 5.52865 28.3934C6.25098 30.3196 7.2604 32.0421 8.5569 33.5608ZM22.2257 24.4483C20.0402 24.4483 18.1973 23.6982 16.6971 22.1979C15.1968 20.6977 14.4467 18.8548 14.4467 16.6693C14.4467 14.4838 15.1968 12.6409 16.6971 11.1406C18.1973 9.64041 20.0402 8.89029 22.2257 8.89029C24.4113 8.89029 26.2541 9.64041 27.7544 11.1406C29.2546 12.6409 30.0047 14.4838 30.0047 16.6693C30.0047 18.8548 29.2546 20.6977 27.7544 22.1979C26.2541 23.6982 24.4113 24.4483 22.2257 24.4483ZM22.2257 44.4514C19.1512 44.4514 16.2618 43.868 13.5577 42.7012C10.8536 41.5343 8.50134 39.9507 6.50102 37.9504C4.50071 35.9501 2.91713 33.5979 1.75028 30.8938C0.583425 28.1896 0 25.3003 0 22.2257C0 19.1512 0.583425 16.2618 1.75028 13.5577C2.91713 10.8536 4.50071 8.50134 6.50102 6.50102C8.50134 4.50071 10.8536 2.91713 13.5577 1.75028C16.2618 0.583425 19.1512 0 22.2257 0C25.3003 0 28.1896 0.583425 30.8938 1.75028C33.5979 2.91713 35.9501 4.50071 37.9504 6.50102C39.9507 8.50134 41.5343 10.8536 42.7012 13.5577C43.868 16.2618 44.4514 19.1512 44.4514 22.2257C44.4514 25.3003 43.868 28.1896 42.7012 30.8938C41.5343 33.5979 39.9507 35.9501 37.9504 37.9504C35.9501 39.9507 33.5979 41.5343 30.8938 42.7012C28.1896 43.868 25.3003 44.4514 22.2257 44.4514ZM22.2257 40.0063C24.189 40.0063 26.0411 39.7192 27.7822 39.1451C29.5232 38.5709 31.116 37.7467 32.5607 36.6724C31.116 35.5982 29.5232 34.774 27.7822 34.1998C26.0411 33.6257 24.189 33.3386 22.2257 33.3386C20.2625 33.3386 18.4103 33.6257 16.6693 34.1998C14.9283 34.774 13.3354 35.5982 11.8908 36.6724C13.3354 37.7467 14.9283 38.5709 16.6693 39.1451C18.4103 39.7192 20.2625 40.0063 22.2257 40.0063ZM22.2257 20.0032C23.1888 20.0032 23.9853 19.6883 24.615 19.0586C25.2447 18.4288 25.5596 17.6324 25.5596 16.6693C25.5596 15.7062 25.2447 14.9098 24.615 14.28C23.9853 13.6503 23.1888 13.3354 22.2257 13.3354C21.2626 13.3354 20.4662 13.6503 19.8365 14.28C19.2067 14.9098 18.8919 15.7062 18.8919 16.6693C18.8919 17.6324 19.2067 18.4288 19.8365 19.0586C20.4662 19.6883 21.2626 20.0032 22.2257 20.0032Z" fill="#5D3889"/>
</svg>
