<svg width="345" height="48" viewBox="0 0 345 48" fill="none" xmlns="http://www.w3.org/2000/svg">
<rect x="1" y="1" width="343" height="46" rx="9" fill="#CDAEF2"/>
<rect x="1" y="1" width="343" height="46" rx="9" stroke="black" stroke-width="2"/>
<path d="M133.924 13.1H136.708L144.868 35.5H142.484L140.74 30.7H129.908L128.164 35.5H125.78L133.924 13.1ZM130.724 28.46H139.908L135.316 15.852L130.724 28.46ZM154.44 21.74H150.616L150.6 35.5H148.36L148.376 21.74H145.48V19.5H148.376L148.36 14.476H150.6L150.616 19.5H154.44V21.74ZM165.471 21.74H161.647L161.631 35.5H159.391L159.407 21.74H156.511V19.5H159.407L159.391 14.476H161.631L161.647 19.5H165.471V21.74ZM174.929 35.916C173.457 35.916 172.113 35.5373 170.897 34.78C169.691 34.0227 168.726 33.0093 168.001 31.74C167.286 30.46 166.929 29.0467 166.929 27.5C166.929 26.3267 167.137 25.2333 167.553 24.22C167.969 23.196 168.539 22.3 169.265 21.532C170.001 20.7533 170.854 20.1453 171.825 19.708C172.795 19.2707 173.83 19.052 174.929 19.052C176.113 19.052 177.201 19.2867 178.193 19.756C179.195 20.2253 180.054 20.8813 180.769 21.724C181.494 22.5667 182.038 23.5533 182.401 24.684C182.774 25.8147 182.929 27.036 182.865 28.348H169.297C169.425 29.3613 169.745 30.268 170.257 31.068C170.779 31.868 171.441 32.5027 172.241 32.972C173.051 33.4307 173.947 33.6653 174.929 33.676C175.995 33.676 176.955 33.3987 177.809 32.844C178.673 32.2893 179.366 31.5267 179.889 30.556L182.161 31.084C181.521 32.5027 180.555 33.6653 179.265 34.572C177.974 35.468 176.529 35.916 174.929 35.916ZM169.233 26.54H180.609C180.534 25.548 180.23 24.6413 179.697 23.82C179.174 22.988 178.497 22.3267 177.665 21.836C176.833 21.3347 175.921 21.084 174.929 21.084C173.937 21.084 173.03 21.3293 172.209 21.82C171.387 22.3 170.715 22.956 170.193 23.788C169.67 24.6093 169.35 25.5267 169.233 26.54ZM199.56 25.596V35.5H197.32V26.044C197.32 25.1693 197.106 24.3747 196.68 23.66C196.253 22.9453 195.682 22.3747 194.968 21.948C194.253 21.5213 193.458 21.308 192.584 21.308C191.72 21.308 190.925 21.5213 190.2 21.948C189.485 22.3747 188.914 22.9453 188.488 23.66C188.061 24.3747 187.848 25.1693 187.848 26.044V35.5H185.608V19.5H187.848V21.708C188.413 20.8973 189.149 20.252 190.056 19.772C190.962 19.292 191.949 19.052 193.016 19.052C194.221 19.052 195.32 19.3453 196.312 19.932C197.304 20.5187 198.093 21.308 198.68 22.3C199.266 23.292 199.56 24.3907 199.56 25.596ZM215.619 11.5H217.859V35.5H215.619V32.508C215.065 33.532 214.302 34.3587 213.331 34.988C212.371 35.6067 211.23 35.916 209.907 35.916C208.745 35.916 207.657 35.6973 206.643 35.26C205.63 34.8227 204.734 34.22 203.955 33.452C203.187 32.6733 202.585 31.7773 202.147 30.764C201.71 29.7507 201.491 28.6627 201.491 27.5C201.491 26.3373 201.71 25.2493 202.147 24.236C202.585 23.212 203.187 22.316 203.955 21.548C204.734 20.7693 205.63 20.1613 206.643 19.724C207.657 19.2867 208.745 19.068 209.907 19.068C211.23 19.068 212.371 19.3827 213.331 20.012C214.302 20.6307 215.065 21.4467 215.619 22.46V11.5ZM209.923 33.74C211.065 33.74 212.046 33.4627 212.867 32.908C213.689 32.3427 214.318 31.5853 214.755 30.636C215.203 29.6867 215.427 28.6413 215.427 27.5C215.427 26.3267 215.203 25.2707 214.755 24.332C214.307 23.3827 213.673 22.6307 212.851 22.076C212.03 21.5213 211.054 21.244 209.923 21.244C208.793 21.244 207.763 21.5267 206.835 22.092C205.907 22.6467 205.166 23.3987 204.611 24.348C204.057 25.2973 203.779 26.348 203.779 27.5C203.779 28.6627 204.062 29.7187 204.627 30.668C205.193 31.6067 205.939 32.3533 206.867 32.908C207.806 33.4627 208.825 33.74 209.923 33.74Z" fill="black"/>
</svg>
