<svg width="82" height="82" viewBox="0 0 82 82" fill="none" xmlns="http://www.w3.org/2000/svg">
<path d="M40.9995 6.6665C45.7408 6.6665 50.2098 7.56718 54.396 9.37354C58.5627 11.1715 62.1975 13.6165 65.2905 16.7095C68.3835 19.8025 70.8285 23.4373 72.6265 27.604C74.4327 31.79 75.3335 36.2585 75.3335 40.9995C75.3335 45.7407 74.4328 50.2099 72.6265 54.396C70.8285 58.5627 68.3836 62.1975 65.2905 65.2905C62.1975 68.3836 58.5627 70.8285 54.396 72.6265C50.2099 74.4328 45.7407 75.3335 40.9995 75.3335C36.2585 75.3335 31.79 74.4327 27.604 72.6265C23.4373 70.8285 19.8025 68.3835 16.7095 65.2905C13.6165 62.1975 11.1715 58.5627 9.37354 54.396C7.56718 50.2098 6.6665 45.7408 6.6665 40.9995C6.66654 36.2585 7.56729 31.79 9.37354 27.604C11.1715 23.4373 13.6164 19.8025 16.7095 16.7095C19.8025 13.6164 23.4373 11.1715 27.604 9.37354C31.79 7.56729 36.2585 6.66654 40.9995 6.6665ZM40.9995 15.3335C33.8148 15.3336 27.7657 17.8154 22.7905 22.7905C17.8154 27.7657 15.3336 33.8148 15.3335 40.9995C15.3335 48.1843 17.8153 54.2343 22.7905 59.2095C27.7656 64.1845 33.8149 66.6664 40.9995 66.6665C48.1843 66.6665 54.2343 64.1847 59.2095 59.2095C64.1847 54.2343 66.6665 48.1843 66.6665 40.9995C66.6664 33.8149 64.1845 27.7656 59.2095 22.7905C54.2343 17.8153 48.1843 15.3335 40.9995 15.3335ZM45.3335 23.3335V36.6665H58.6665V45.3335H45.3335V58.6665H36.6665V45.3335H23.3335V36.6665H36.6665V23.3335H45.3335Z" fill="#CDAEF2" stroke="black" stroke-width="2"/>
</svg>
