<svg width="150" height="48" viewBox="0 0 150 48" fill="none" xmlns="http://www.w3.org/2000/svg">
<path d="M31.5494 30V18.8H38.5734V20.752H33.5014V23.024H37.5254V24.976H33.5014V28.048H38.5734V30H31.5494ZM45.017 30H42.497L39.585 21.992H41.665L43.761 27.752L45.849 21.992H47.929L45.017 30ZM52.3194 30.208C51.5834 30.208 50.9114 30.0187 50.3034 29.64C49.7007 29.2613 49.218 28.752 48.8554 28.112C48.498 27.472 48.3194 26.7653 48.3194 25.992C48.3194 25.4107 48.4234 24.8667 48.6314 24.36C48.8394 23.848 49.1247 23.4 49.4874 23.016C49.8554 22.6267 50.282 22.3227 50.7674 22.104C51.2527 21.8853 51.77 21.776 52.3194 21.776C52.9434 21.776 53.514 21.9093 54.0314 22.176C54.554 22.4373 54.9967 22.7973 55.3594 23.256C55.722 23.7147 55.986 24.2373 56.1514 24.824C56.3167 25.4107 56.354 26.024 56.2634 26.664H50.4154C50.49 26.9627 50.6127 27.232 50.7834 27.472C50.954 27.7067 51.17 27.896 51.4314 28.04C51.6927 28.1787 51.9887 28.2507 52.3194 28.256C52.6607 28.2613 52.97 28.1813 53.2474 28.016C53.53 27.8453 53.7647 27.616 53.9514 27.328L55.9434 27.792C55.618 28.5013 55.1327 29.0827 54.4874 29.536C53.842 29.984 53.1194 30.208 52.3194 30.208ZM50.3514 25.2H54.2874C54.2287 24.88 54.1034 24.592 53.9114 24.336C53.7247 24.0747 53.4927 23.8667 53.2154 23.712C52.938 23.5573 52.6394 23.48 52.3194 23.48C51.9994 23.48 51.7034 23.5573 51.4314 23.712C51.1594 23.8613 50.9274 24.0667 50.7354 24.328C50.5487 24.584 50.4207 24.8747 50.3514 25.2ZM64.893 24.944V30H62.941V25.456C62.941 25.1413 62.8636 24.856 62.709 24.6C62.5543 24.3387 62.3463 24.1333 62.085 23.984C61.829 23.8293 61.5436 23.752 61.229 23.752C60.9143 23.752 60.6263 23.8293 60.365 23.984C60.109 24.1333 59.9036 24.3387 59.749 24.6C59.5996 24.856 59.525 25.1413 59.525 25.456V30H57.573L57.565 22H59.517L59.525 22.712C59.797 22.424 60.1223 22.1973 60.501 22.032C60.8796 21.8613 61.2876 21.776 61.725 21.776C62.3063 21.776 62.837 21.92 63.317 22.208C63.797 22.4907 64.1783 22.872 64.461 23.352C64.749 23.8267 64.893 24.3573 64.893 24.944ZM70.7749 23.952H69.2229V30H67.2709V23.952H66.0869V22H67.2709V19.488H69.2229V22H70.7749V23.952Z" fill="black"/>
<g clip-path="url(#clip0_322_3311)">
<path d="M133.425 10H117.425C109.693 10 103.425 16.268 103.425 24C103.425 31.732 109.693 38 117.425 38H133.425C141.157 38 147.425 31.732 147.425 24C147.425 16.268 141.157 10 133.425 10Z" stroke="#F15BB5" stroke-width="4" stroke-linecap="round" stroke-linejoin="round"/>
<path d="M117.425 30C120.739 30 123.425 27.3137 123.425 24C123.425 20.6863 120.739 18 117.425 18C114.112 18 111.425 20.6863 111.425 24C111.425 27.3137 114.112 30 117.425 30Z" stroke="#F15BB5" stroke-width="4" stroke-linecap="round" stroke-linejoin="round"/>
</g>
<defs>
<clipPath id="clip0_322_3311">
<rect width="48" height="48" fill="white" transform="translate(101.425)"/>
</clipPath>
</defs>
</svg>
