<svg width="150" height="48" viewBox="0 0 150 48" fill="none" xmlns="http://www.w3.org/2000/svg">
<path d="M15.4478 30V18.8H19.1598C19.9331 18.8 20.6558 18.9467 21.3278 19.24C22.0051 19.528 22.5998 19.9307 23.1118 20.448C23.6291 20.96 24.0318 21.5547 24.3198 22.232C24.6131 22.904 24.7598 23.6267 24.7598 24.4C24.7598 25.1733 24.6131 25.8987 24.3198 26.576C24.0318 27.248 23.6291 27.8427 23.1118 28.36C22.5998 28.872 22.0051 29.2747 21.3278 29.568C20.6558 29.856 19.9331 30 19.1598 30H15.4478ZM17.3998 28.048H19.1598C19.6558 28.048 20.1225 27.9547 20.5598 27.768C21.0025 27.576 21.3918 27.3147 21.7278 26.984C22.0638 26.648 22.3278 26.2613 22.5198 25.824C22.7118 25.3813 22.8078 24.9067 22.8078 24.4C22.8078 23.8933 22.7118 23.4213 22.5198 22.984C22.3278 22.5467 22.0638 22.16 21.7278 21.824C21.3918 21.488 21.0051 21.2267 20.5678 21.04C20.1305 20.848 19.6611 20.752 19.1598 20.752H17.3998V28.048ZM26.0728 22H28.0248V30H26.0728V22ZM27.0648 20.968C26.7768 20.968 26.5341 20.8747 26.3368 20.688C26.1395 20.496 26.0408 20.256 26.0408 19.968C26.0408 19.6853 26.1395 19.448 26.3368 19.256C26.5341 19.064 26.7741 18.968 27.0568 18.968C27.3395 18.968 27.5768 19.064 27.7688 19.256C27.9661 19.448 28.0648 19.6853 28.0648 19.968C28.0648 20.256 27.9688 20.496 27.7768 20.688C27.5848 20.8747 27.3475 20.968 27.0648 20.968ZM32.1828 30.144C31.7668 30.1173 31.3641 30.0347 30.9748 29.896C30.5908 29.752 30.2495 29.5573 29.9508 29.312C29.6521 29.0667 29.4228 28.7733 29.2628 28.432L30.9108 27.728C30.9748 27.8347 31.0788 27.9493 31.2228 28.072C31.3668 28.1893 31.5375 28.288 31.7348 28.368C31.9375 28.448 32.1588 28.488 32.3988 28.488C32.6015 28.488 32.7935 28.4613 32.9748 28.408C33.1615 28.3493 33.3108 28.2613 33.4228 28.144C33.5401 28.0267 33.5988 27.8747 33.5988 27.688C33.5988 27.4907 33.5295 27.3387 33.3908 27.232C33.2575 27.12 33.0868 27.0373 32.8788 26.984C32.6761 26.9253 32.4788 26.872 32.2868 26.824C31.7801 26.7227 31.3081 26.5653 30.8708 26.352C30.4388 26.1387 30.0895 25.864 29.8228 25.528C29.5615 25.1867 29.4308 24.776 29.4308 24.296C29.4308 23.768 29.5695 23.312 29.8468 22.928C30.1295 22.544 30.4948 22.248 30.9428 22.04C31.3961 21.832 31.8841 21.728 32.4068 21.728C33.0415 21.728 33.6228 21.8613 34.1508 22.128C34.6841 22.3893 35.1055 22.76 35.4148 23.24L33.8708 24.152C33.7961 24.024 33.6921 23.9067 33.5588 23.8C33.4255 23.688 33.2735 23.5973 33.1028 23.528C32.9321 23.4533 32.7535 23.4107 32.5668 23.4C32.3268 23.3893 32.1081 23.4107 31.9108 23.464C31.7135 23.5173 31.5535 23.608 31.4308 23.736C31.3135 23.864 31.2548 24.0347 31.2548 24.248C31.2548 24.4507 31.3348 24.6027 31.4948 24.704C31.6548 24.8 31.8468 24.8747 32.0708 24.928C32.3001 24.9813 32.5188 25.04 32.7268 25.104C33.1961 25.2587 33.6361 25.448 34.0468 25.672C34.4628 25.896 34.7961 26.1707 35.0468 26.496C35.2975 26.8213 35.4175 27.2107 35.4068 27.664C35.4068 28.1813 35.2521 28.6347 34.9428 29.024C34.6335 29.408 34.2335 29.7013 33.7428 29.904C33.2575 30.1067 32.7375 30.1867 32.1828 30.144ZM41.6109 27.592L43.3709 28.544C43.0029 29.0453 42.5416 29.448 41.9869 29.752C41.4323 30.056 40.8269 30.208 40.1709 30.208C39.4349 30.208 38.7629 30.0187 38.1549 29.64C37.5523 29.2613 37.0696 28.7547 36.7069 28.12C36.3496 27.48 36.1709 26.7733 36.1709 26C36.1709 25.4133 36.2749 24.8667 36.4829 24.36C36.6909 23.848 36.9763 23.4 37.3389 23.016C37.7069 22.6267 38.1336 22.3227 38.6189 22.104C39.1043 21.8853 39.6216 21.776 40.1709 21.776C40.8269 21.776 41.4323 21.928 41.9869 22.232C42.5416 22.536 43.0029 22.944 43.3709 23.456L41.6109 24.4C41.4243 24.1867 41.2029 24.0213 40.9469 23.904C40.6963 23.7867 40.4376 23.728 40.1709 23.728C39.7869 23.728 39.4403 23.8347 39.1309 24.048C38.8216 24.256 38.5763 24.5333 38.3949 24.88C38.2136 25.2213 38.1229 25.5947 38.1229 26C38.1229 26.4 38.2136 26.7733 38.3949 27.12C38.5763 27.4613 38.8216 27.736 39.1309 27.944C39.4403 28.152 39.7869 28.256 40.1709 28.256C40.4483 28.256 40.7123 28.1973 40.9629 28.08C41.2136 27.9573 41.4296 27.7947 41.6109 27.592ZM44.2997 27.04V22H46.2517V26.528C46.2517 26.8427 46.329 27.1307 46.4837 27.392C46.6383 27.648 46.8437 27.8533 47.0997 28.008C47.361 28.1573 47.6463 28.232 47.9557 28.232C48.2757 28.232 48.5637 28.1573 48.8197 28.008C49.0757 27.8533 49.281 27.648 49.4357 27.392C49.5903 27.1307 49.6677 26.8427 49.6677 26.528V22H51.6197L51.6277 30H49.6757L49.6677 29.272C49.3903 29.56 49.0623 29.7893 48.6837 29.96C48.305 30.1253 47.8997 30.208 47.4677 30.208C46.8863 30.208 46.3557 30.0667 45.8757 29.784C45.3957 29.496 45.0117 29.1147 44.7237 28.64C44.441 28.16 44.2997 27.6267 44.2997 27.04ZM55.589 30.144C55.173 30.1173 54.7704 30.0347 54.381 29.896C53.997 29.752 53.6557 29.5573 53.357 29.312C53.0584 29.0667 52.829 28.7733 52.669 28.432L54.317 27.728C54.381 27.8347 54.485 27.9493 54.629 28.072C54.773 28.1893 54.9437 28.288 55.141 28.368C55.3437 28.448 55.565 28.488 55.805 28.488C56.0077 28.488 56.1997 28.4613 56.381 28.408C56.5677 28.3493 56.717 28.2613 56.829 28.144C56.9464 28.0267 57.005 27.8747 57.005 27.688C57.005 27.4907 56.9357 27.3387 56.797 27.232C56.6637 27.12 56.493 27.0373 56.285 26.984C56.0824 26.9253 55.885 26.872 55.693 26.824C55.1864 26.7227 54.7144 26.5653 54.277 26.352C53.845 26.1387 53.4957 25.864 53.229 25.528C52.9677 25.1867 52.837 24.776 52.837 24.296C52.837 23.768 52.9757 23.312 53.253 22.928C53.5357 22.544 53.901 22.248 54.349 22.04C54.8024 21.832 55.2904 21.728 55.813 21.728C56.4477 21.728 57.029 21.8613 57.557 22.128C58.0904 22.3893 58.5117 22.76 58.821 23.24L57.277 24.152C57.2024 24.024 57.0984 23.9067 56.965 23.8C56.8317 23.688 56.6797 23.5973 56.509 23.528C56.3384 23.4533 56.1597 23.4107 55.973 23.4C55.733 23.3893 55.5144 23.4107 55.317 23.464C55.1197 23.5173 54.9597 23.608 54.837 23.736C54.7197 23.864 54.661 24.0347 54.661 24.248C54.661 24.4507 54.741 24.6027 54.901 24.704C55.061 24.8 55.253 24.8747 55.477 24.928C55.7064 24.9813 55.925 25.04 56.133 25.104C56.6024 25.2587 57.0424 25.448 57.453 25.672C57.869 25.896 58.2024 26.1707 58.453 26.496C58.7037 26.8213 58.8237 27.2107 58.813 27.664C58.813 28.1813 58.6584 28.6347 58.349 29.024C58.0397 29.408 57.6397 29.7013 57.149 29.904C56.6637 30.1067 56.1437 30.1867 55.589 30.144ZM62.5422 30.144C62.1262 30.1173 61.7235 30.0347 61.3342 29.896C60.9502 29.752 60.6088 29.5573 60.3102 29.312C60.0115 29.0667 59.7822 28.7733 59.6222 28.432L61.2702 27.728C61.3342 27.8347 61.4382 27.9493 61.5822 28.072C61.7262 28.1893 61.8968 28.288 62.0942 28.368C62.2968 28.448 62.5182 28.488 62.7582 28.488C62.9608 28.488 63.1528 28.4613 63.3342 28.408C63.5208 28.3493 63.6702 28.2613 63.7822 28.144C63.8995 28.0267 63.9582 27.8747 63.9582 27.688C63.9582 27.4907 63.8888 27.3387 63.7502 27.232C63.6168 27.12 63.4462 27.0373 63.2382 26.984C63.0355 26.9253 62.8382 26.872 62.6462 26.824C62.1395 26.7227 61.6675 26.5653 61.2302 26.352C60.7982 26.1387 60.4488 25.864 60.1822 25.528C59.9208 25.1867 59.7902 24.776 59.7902 24.296C59.7902 23.768 59.9288 23.312 60.2062 22.928C60.4888 22.544 60.8542 22.248 61.3022 22.04C61.7555 21.832 62.2435 21.728 62.7662 21.728C63.4008 21.728 63.9822 21.8613 64.5102 22.128C65.0435 22.3893 65.4648 22.76 65.7742 23.24L64.2302 24.152C64.1555 24.024 64.0515 23.9067 63.9182 23.8C63.7848 23.688 63.6328 23.5973 63.4622 23.528C63.2915 23.4533 63.1128 23.4107 62.9262 23.4C62.6862 23.3893 62.4675 23.4107 62.2702 23.464C62.0728 23.5173 61.9128 23.608 61.7902 23.736C61.6728 23.864 61.6142 24.0347 61.6142 24.248C61.6142 24.4507 61.6942 24.6027 61.8542 24.704C62.0142 24.8 62.2062 24.8747 62.4302 24.928C62.6595 24.9813 62.8782 25.04 63.0862 25.104C63.5555 25.2587 63.9955 25.448 64.4062 25.672C64.8222 25.896 65.1555 26.1707 65.4062 26.496C65.6568 26.8213 65.7768 27.2107 65.7662 27.664C65.7662 28.1813 65.6115 28.6347 65.3022 29.024C64.9928 29.408 64.5928 29.7013 64.1022 29.904C63.6168 30.1067 63.0968 30.1867 62.5422 30.144ZM66.9478 22H68.8998V30H66.9478V22ZM67.9398 20.968C67.6518 20.968 67.4091 20.8747 67.2118 20.688C67.0145 20.496 66.9158 20.256 66.9158 19.968C66.9158 19.6853 67.0145 19.448 67.2118 19.256C67.4091 19.064 67.6491 18.968 67.9318 18.968C68.2145 18.968 68.4518 19.064 68.6438 19.256C68.8411 19.448 68.9398 19.6853 68.9398 19.968C68.9398 20.256 68.8438 20.496 68.6518 20.688C68.4598 20.8747 68.2225 20.968 67.9398 20.968ZM74.1553 30.208C73.4193 30.208 72.7473 30.0187 72.1393 29.64C71.5366 29.2613 71.054 28.7547 70.6913 28.12C70.334 27.48 70.1553 26.7733 70.1553 26C70.1553 25.4133 70.2593 24.8667 70.4673 24.36C70.6753 23.848 70.9606 23.4 71.3233 23.016C71.6913 22.6267 72.118 22.3227 72.6033 22.104C73.0886 21.8853 73.606 21.776 74.1553 21.776C74.8913 21.776 75.5606 21.9653 76.1633 22.344C76.7713 22.7227 77.254 23.232 77.6113 23.872C77.974 24.512 78.1553 25.2213 78.1553 26C78.1553 26.5813 78.0513 27.1253 77.8433 27.632C77.6353 28.1387 77.3473 28.5867 76.9793 28.976C76.6166 29.36 76.1926 29.6613 75.7073 29.88C75.2273 30.0987 74.71 30.208 74.1553 30.208ZM74.1553 28.256C74.5446 28.256 74.894 28.152 75.2033 27.944C75.5126 27.736 75.7553 27.4613 75.9313 27.12C76.1126 26.7787 76.2033 26.4053 76.2033 26C76.2033 25.584 76.11 25.2053 75.9233 24.864C75.742 24.5173 75.494 24.2427 75.1793 24.04C74.87 23.832 74.5286 23.728 74.1553 23.728C73.7713 23.728 73.4246 23.832 73.1153 24.04C72.806 24.248 72.5606 24.5253 72.3793 24.872C72.198 25.2187 72.1073 25.5947 72.1073 26C72.1073 26.4213 72.2006 26.8027 72.3873 27.144C72.574 27.4853 72.822 27.7573 73.1313 27.96C73.446 28.1573 73.7873 28.256 74.1553 28.256ZM86.7289 24.944V30H84.7769V25.456C84.7769 25.1413 84.6996 24.856 84.5449 24.6C84.3903 24.3387 84.1823 24.1333 83.9209 23.984C83.6649 23.8293 83.3796 23.752 83.0649 23.752C82.7503 23.752 82.4623 23.8293 82.2009 23.984C81.9449 24.1333 81.7396 24.3387 81.5849 24.6C81.4356 24.856 81.3609 25.1413 81.3609 25.456V30H79.4089L79.4009 22H81.3529L81.3609 22.712C81.6329 22.424 81.9583 22.1973 82.3369 22.032C82.7156 21.8613 83.1236 21.776 83.5609 21.776C84.1423 21.776 84.6729 21.92 85.1529 22.208C85.6329 22.4907 86.0143 22.872 86.2969 23.352C86.5849 23.8267 86.7289 24.3573 86.7289 24.944Z" fill="black"/>
<g clip-path="url(#clip0_322_3324)">
<path d="M117.425 10H133.425C141.157 10 147.425 16.268 147.425 24C147.425 31.732 141.157 38 133.425 38H117.425C109.693 38 103.425 31.732 103.425 24C103.425 16.268 109.693 10 117.425 10Z" stroke="#3EB8F0" stroke-width="4" stroke-linecap="round" stroke-linejoin="round"/>
<path d="M133.425 30C130.112 30 127.425 27.3137 127.425 24C127.425 20.6863 130.112 18 133.425 18C136.739 18 139.425 20.6863 139.425 24C139.425 27.3137 136.739 30 133.425 30Z" stroke="#3EB8F0" stroke-width="4" stroke-linecap="round" stroke-linejoin="round"/>
</g>
<defs>
<clipPath id="clip0_322_3324">
<rect width="48" height="48" fill="white" transform="matrix(-1 0 0 1 149.425 0)"/>
</clipPath>
</defs>
</svg>
