<svg width="73" height="33" viewBox="0 0 73 33" fill="none" xmlns="http://www.w3.org/2000/svg">
<rect x="0.5" y="0.5" width="72" height="32" rx="9.5" fill="#F15BB5"/>
<rect x="0.5" y="0.5" width="72" height="32" rx="9.5" stroke="black"/>
<path d="M15.94 25V8.2H21.484C22.388 8.2 23.2 8.42 23.92 8.86C24.648 9.3 25.224 9.896 25.648 10.648C26.08 11.392 26.296 12.224 26.296 13.144C26.296 14.08 26.076 14.924 25.636 15.676C25.204 16.42 24.62 17.012 23.884 17.452C23.156 17.884 22.356 18.1 21.484 18.1H17.956V25H15.94ZM17.956 16.084H21.304C21.848 16.084 22.344 15.952 22.792 15.688C23.248 15.416 23.608 15.052 23.872 14.596C24.144 14.132 24.28 13.612 24.28 13.036C24.28 12.452 24.144 11.932 23.872 11.476C23.608 11.012 23.248 10.648 22.792 10.384C22.344 10.112 21.848 9.976 21.304 9.976H17.956V16.084ZM32.9622 25.312C31.8582 25.312 30.8502 25.028 29.9382 24.46C29.0342 23.892 28.3102 23.132 27.7662 22.18C27.2302 21.22 26.9622 20.16 26.9622 19C26.9622 18.12 27.1182 17.3 27.4302 16.54C27.7422 15.772 28.1702 15.1 28.7142 14.524C29.2662 13.94 29.9062 13.484 30.6342 13.156C31.3622 12.828 32.1382 12.664 32.9622 12.664C34.0662 12.664 35.0702 12.948 35.9742 13.516C36.8862 14.084 37.6102 14.848 38.1462 15.808C38.6902 16.768 38.9622 17.832 38.9622 19C38.9622 19.872 38.8062 20.688 38.4942 21.448C38.1822 22.208 37.7502 22.88 37.1982 23.464C36.6542 24.04 36.0182 24.492 35.2902 24.82C34.5702 25.148 33.7942 25.312 32.9622 25.312ZM32.9622 23.296C33.7142 23.296 34.3902 23.1 34.9902 22.708C35.5982 22.308 36.0742 21.784 36.4182 21.136C36.7702 20.48 36.9462 19.768 36.9462 19C36.9462 18.216 36.7662 17.496 36.4062 16.84C36.0542 16.184 35.5782 15.66 34.9782 15.268C34.3782 14.876 33.7062 14.68 32.9622 14.68C32.2102 14.68 31.5342 14.88 30.9342 15.28C30.3342 15.672 29.8582 16.196 29.5062 16.852C29.1542 17.508 28.9782 18.224 28.9782 19C28.9782 19.8 29.1582 20.528 29.5182 21.184C29.8782 21.832 30.3622 22.348 30.9702 22.732C31.5782 23.108 32.2422 23.296 32.9622 23.296ZM44.6547 25.228C44.0067 25.204 43.3747 25.084 42.7587 24.868C42.1507 24.644 41.6147 24.344 41.1507 23.968C40.6947 23.584 40.3627 23.144 40.1547 22.648L41.8827 21.904C42.0027 22.176 42.2187 22.432 42.5307 22.672C42.8427 22.912 43.2027 23.104 43.6107 23.248C44.0187 23.392 44.4307 23.464 44.8467 23.464C45.2867 23.464 45.6987 23.396 46.0827 23.26C46.4667 23.124 46.7787 22.924 47.0187 22.66C47.2667 22.388 47.3907 22.064 47.3907 21.688C47.3907 21.288 47.2547 20.976 46.9827 20.752C46.7187 20.52 46.3827 20.34 45.9747 20.212C45.5747 20.076 45.1667 19.948 44.7507 19.828C43.9267 19.62 43.1907 19.372 42.5427 19.084C41.8947 18.788 41.3827 18.416 41.0067 17.968C40.6387 17.512 40.4547 16.932 40.4547 16.228C40.4547 15.484 40.6587 14.84 41.0667 14.296C41.4827 13.752 42.0267 13.332 42.6987 13.036C43.3707 12.74 44.0907 12.592 44.8587 12.592C45.8267 12.592 46.7107 12.8 47.5107 13.216C48.3107 13.632 48.9067 14.196 49.2987 14.908L47.6787 15.856C47.5427 15.568 47.3347 15.316 47.0547 15.1C46.7747 14.876 46.4547 14.7 46.0947 14.572C45.7347 14.444 45.3667 14.376 44.9907 14.368C44.5267 14.352 44.0907 14.412 43.6827 14.548C43.2827 14.684 42.9587 14.892 42.7107 15.172C42.4707 15.444 42.3507 15.784 42.3507 16.192C42.3507 16.592 42.4787 16.896 42.7347 17.104C42.9987 17.312 43.3387 17.48 43.7547 17.608C44.1787 17.728 44.6387 17.868 45.1347 18.028C45.8627 18.26 46.5427 18.528 47.1747 18.832C47.8067 19.136 48.3147 19.516 48.6987 19.972C49.0907 20.428 49.2827 20.992 49.2747 21.664C49.2747 22.4 49.0547 23.044 48.6147 23.596C48.1747 24.14 47.6027 24.556 46.8987 24.844C46.2027 25.132 45.4547 25.26 44.6547 25.228ZM57.5466 15.016H54.8226L54.8106 25H52.7946L52.8066 15.016H50.7426V13H52.8066L52.7946 9.232H54.8106L54.8226 13H57.5466V15.016Z" fill="black"/>
</svg>
