<svg width="45" height="45" viewBox="0 0 45 45" fill="none" xmlns="http://www.w3.org/2000/svg">
<path d="M44.4514 44.4514L35.5612 35.5612H13.3354C12.113 35.5612 11.0666 35.1259 10.1961 34.2554C9.32554 33.3849 8.89029 32.3384 8.89029 31.116V28.8934H33.3386C34.561 28.8934 35.6075 28.4582 36.478 27.5877C37.3485 26.7172 37.7837 25.6707 37.7837 24.4483V8.89029H40.0063C41.2287 8.89029 42.2752 9.32554 43.1457 10.1961C44.0162 11.0666 44.4514 12.113 44.4514 13.3354V44.4514ZM4.44514 22.6147L7.05667 20.0032H28.8934V4.44514H4.44514V22.6147ZM0 33.3386V4.44514C0 3.22273 0.435254 2.17627 1.30576 1.30576C2.17627 0.435254 3.22273 0 4.44514 0H28.8934C30.1159 0 31.1623 0.435254 32.0328 1.30576C32.9033 2.17627 33.3386 3.22273 33.3386 4.44514V20.0032C33.3386 21.2256 32.9033 22.272 32.0328 23.1425C31.1623 24.013 30.1159 24.4483 28.8934 24.4483H8.89029L0 33.3386Z" fill="#3EB8F0"/>
</svg>
