<svg width="37" height="37" viewBox="0 0 37 37" fill="none" xmlns="http://www.w3.org/2000/svg">
<path d="M18.5963 23.138C21.1004 23.138 23.1303 21.1081 23.1303 18.604C23.1303 16.0999 21.1004 14.0699 18.5963 14.0699C16.0922 14.0699 14.0622 16.0999 14.0622 18.604C14.0622 21.1081 16.0922 23.138 18.5963 23.138Z" stroke="#1E1E1E" stroke-width="4.26734" stroke-linecap="round" stroke-linejoin="round"/>
<path d="M29.7803 23.138C29.5791 23.5939 29.5191 24.0995 29.608 24.5898C29.6969 25.0801 29.9306 25.5325 30.279 25.8887L30.3697 25.9794C30.6507 26.2601 30.8737 26.5934 31.0258 26.9604C31.1779 27.3273 31.2562 27.7207 31.2562 28.1179C31.2562 28.5151 31.1779 28.9085 31.0258 29.2754C30.8737 29.6424 30.6507 29.9757 30.3697 30.2565C30.089 30.5375 29.7556 30.7605 29.3886 30.9126C29.0217 31.0647 28.6284 31.143 28.2311 31.143C27.8339 31.143 27.4406 31.0647 27.0736 30.9126C26.7067 30.7605 26.3733 30.5375 26.0926 30.2565L26.0019 30.1658C25.6457 29.8174 25.1933 29.5836 24.703 29.4947C24.2127 29.4058 23.7071 29.4659 23.2512 29.667C22.8042 29.8586 22.423 30.1767 22.1545 30.5822C21.8859 30.9877 21.7418 31.4628 21.7399 31.9492V32.2061C21.7399 33.0078 21.4214 33.7766 20.8546 34.3435C20.2877 34.9103 19.5189 35.2288 18.7172 35.2288C17.9155 35.2288 17.1467 34.9103 16.5798 34.3435C16.0129 33.7766 15.6945 33.0078 15.6945 32.2061V32.0701C15.6828 31.5698 15.5209 31.0847 15.2298 30.6777C14.9387 30.2707 14.5319 29.9607 14.0622 29.788C13.6064 29.5868 13.1007 29.5268 12.6104 29.6157C12.1202 29.7045 11.6678 29.9383 11.3116 30.2867L11.2209 30.3774C10.9402 30.6584 10.6068 30.8814 10.2398 31.0335C9.8729 31.1856 9.47956 31.2639 9.08233 31.2639C8.6851 31.2639 8.29177 31.1856 7.92482 31.0335C7.55787 30.8814 7.2245 30.6584 6.94377 30.3774C6.66273 30.0967 6.43978 29.7633 6.28767 29.3963C6.13555 29.0294 6.05726 28.636 6.05726 28.2388C6.05726 27.8416 6.13555 27.4483 6.28767 27.0813C6.43978 26.7144 6.66273 26.381 6.94377 26.1003L7.03446 26.0096C7.38288 25.6534 7.61661 25.201 7.7055 24.7107C7.7944 24.2204 7.73438 23.7148 7.5332 23.2589C7.34162 22.8119 7.02351 22.4307 6.61803 22.1621C6.21255 21.8936 5.7374 21.7495 5.25106 21.7476H4.99413C4.19246 21.7476 3.42363 21.4291 2.85676 20.8622C2.2899 20.2954 1.97144 19.5265 1.97144 18.7249C1.97144 17.9232 2.2899 17.1544 2.85676 16.5875C3.42363 16.0206 4.19246 15.7022 4.99413 15.7022H5.13016C5.6304 15.6905 6.11556 15.5286 6.52256 15.2375C6.92956 14.9464 7.23957 14.5395 7.41229 14.0699C7.61348 13.6141 7.67349 13.1084 7.58459 12.6181C7.4957 12.1279 7.26197 11.6755 6.91355 11.3193L6.82287 11.2286C6.54183 10.9479 6.31888 10.6145 6.16676 10.2475C6.01465 9.88059 5.93635 9.48725 5.93635 9.09002C5.93635 8.69279 6.01465 8.29946 6.16676 7.93251C6.31888 7.56556 6.54183 7.23219 6.82287 6.95146C7.10359 6.67043 7.43696 6.44747 7.80391 6.29536C8.17086 6.14324 8.5642 6.06495 8.96143 6.06495C9.35865 6.06495 9.75199 6.14324 10.1189 6.29536C10.4859 6.44747 10.8193 6.67043 11.1 6.95146L11.1907 7.04215C11.5469 7.39057 11.9993 7.6243 12.4895 7.71319C12.9798 7.80209 13.4855 7.74207 13.9413 7.54089H14.0622C14.5092 7.34931 14.8905 7.0312 15.159 6.62572C15.4275 6.22024 15.5716 5.74509 15.5736 5.25875V5.00182C15.5736 4.20015 15.892 3.43132 16.4589 2.86445C17.0258 2.29759 17.7946 1.97913 18.5963 1.97913C19.3979 1.97913 20.1668 2.29759 20.7336 2.86445C21.3005 3.43132 21.619 4.20015 21.619 5.00182V5.13785C21.6209 5.62418 21.765 6.09933 22.0335 6.50481C22.3021 6.91029 22.6833 7.2284 23.1303 7.41998C23.5862 7.62117 24.0918 7.68118 24.5821 7.59228C25.0724 7.50339 25.5248 7.26966 25.881 6.92124L25.9717 6.83056C26.2524 6.54952 26.5858 6.32657 26.9527 6.17445C27.3197 6.02234 27.713 5.94404 28.1102 5.94404C28.5074 5.94404 28.9008 6.02234 29.2677 6.17445C29.6347 6.32657 29.9681 6.54952 30.2488 6.83056C30.5298 7.11128 30.7528 7.44465 30.9049 7.8116C31.057 8.17855 31.1353 8.57189 31.1353 8.96912C31.1353 9.36635 31.057 9.75968 30.9049 10.1266C30.7528 10.4936 30.5298 10.8269 30.2488 11.1077L30.1581 11.1984C29.8097 11.5545 29.5759 12.007 29.4871 12.4972C29.3982 12.9875 29.4582 13.4932 29.6594 13.949V14.0699C29.8509 14.5169 30.169 14.8982 30.5745 15.1667C30.98 15.4352 31.4552 15.5793 31.9415 15.5813H32.1984C33.0001 15.5813 33.7689 15.8997 34.3358 16.4666C34.9027 17.0335 35.2211 17.8023 35.2211 18.604C35.2211 19.4056 34.9027 20.1745 34.3358 20.7413C33.7689 21.3082 33.0001 21.6267 32.1984 21.6267H32.0624C31.5761 21.6286 31.1009 21.7727 30.6954 22.0412C30.29 22.3098 29.9718 22.691 29.7803 23.138Z" stroke="#1E1E1E" stroke-width="4.26734" stroke-linecap="round" stroke-linejoin="round"/>
</svg>
