<svg width="48" height="68" viewBox="0 0 48 68" fill="none" xmlns="http://www.w3.org/2000/svg">
<path d="M10.7603 63.2988C9.62581 63.2988 8.64632 63.0443 7.82178 62.5352C7.00277 62.026 6.36914 61.3039 5.9209 60.3687C5.47819 59.4279 5.25684 58.3128 5.25684 57.0234V57.0068C5.25684 55.7119 5.47819 54.5968 5.9209 53.6616C6.36914 52.7209 7.00277 51.9959 7.82178 51.4868C8.64079 50.9777 9.61751 50.7231 10.752 50.7231C11.6595 50.7231 12.4785 50.903 13.209 51.2627C13.9395 51.6169 14.5343 52.1094 14.9937 52.7402C15.453 53.3656 15.7297 54.085 15.8237 54.8984L15.8154 54.9648H13.7236L13.7153 54.9233C13.6157 54.453 13.4276 54.0435 13.1509 53.6948C12.8742 53.3407 12.5311 53.0667 12.1216 52.873C11.7121 52.6738 11.2555 52.5742 10.752 52.5742C10.0768 52.5742 9.49023 52.7541 8.99219 53.1138C8.49414 53.4735 8.10954 53.9854 7.83838 54.6494C7.57275 55.3079 7.43994 56.091 7.43994 56.9985V57.0151C7.43994 57.9227 7.57275 58.7085 7.83838 59.3726C8.10954 60.0366 8.49414 60.5485 8.99219 60.9082C9.49023 61.2679 10.0796 61.4478 10.7603 61.4478C11.2694 61.4478 11.7259 61.3592 12.1299 61.1821C12.5394 61.005 12.8797 60.756 13.1509 60.4351C13.4276 60.1086 13.6157 59.7267 13.7153 59.2896L13.7319 59.2397H15.8237V59.3062C15.7186 60.103 15.4391 60.8003 14.9854 61.3979C14.5316 61.9956 13.945 62.4632 13.2256 62.8008C12.5062 63.1328 11.6844 63.2988 10.7603 63.2988ZM18.0815 63V50.416H20.1484V55.3218H20.2896C20.5054 54.8293 20.8319 54.4447 21.269 54.168C21.7062 53.8913 22.2513 53.7529 22.9043 53.7529C23.5794 53.7529 24.1494 53.8857 24.6143 54.1514C25.0791 54.4115 25.4305 54.7933 25.6685 55.2969C25.9119 55.8005 26.0337 56.4119 26.0337 57.1313V63H23.9668V57.6128C23.9668 56.9045 23.8174 56.3732 23.5186 56.019C23.2253 55.6649 22.766 55.4878 22.1406 55.4878C21.7311 55.4878 21.377 55.5791 21.0781 55.7617C20.7793 55.9443 20.5496 56.2017 20.3892 56.5337C20.2287 56.8657 20.1484 57.2586 20.1484 57.7124V63H18.0815ZM30.9478 63.1494C30.3778 63.1494 29.8659 63.0387 29.4121 62.8174C28.9639 62.596 28.6097 62.2834 28.3496 61.8794C28.0951 61.4699 27.9678 60.9884 27.9678 60.4351V60.4185C27.9678 59.8817 28.1006 59.4196 28.3662 59.0322C28.6318 58.6393 29.022 58.3322 29.5366 58.1108C30.0513 57.8895 30.6766 57.7594 31.4126 57.7207L34.7661 57.5132V58.8745L31.7031 59.0737C31.1221 59.1069 30.6932 59.2287 30.4165 59.439C30.1398 59.6493 30.0015 59.9425 30.0015 60.3188V60.3354C30.0015 60.7228 30.1481 61.0244 30.4414 61.2402C30.7402 61.4561 31.1193 61.564 31.5786 61.564C31.9937 61.564 32.3644 61.481 32.6909 61.3149C33.0174 61.1489 33.2747 60.9248 33.4629 60.6426C33.651 60.3548 33.7451 60.0311 33.7451 59.6714V56.7993C33.7451 56.3455 33.6012 55.9997 33.3135 55.7617C33.0257 55.5182 32.5996 55.3965 32.0352 55.3965C31.5648 55.3965 31.1802 55.4795 30.8813 55.6455C30.5825 55.806 30.3805 56.0356 30.2754 56.3345L30.2671 56.3677H28.3164L28.3247 56.293C28.3911 55.7839 28.5903 55.3384 28.9224 54.9565C29.2544 54.5747 29.6943 54.2786 30.2422 54.0684C30.79 53.8581 31.4209 53.7529 32.1348 53.7529C32.9206 53.7529 33.5846 53.8747 34.127 54.1182C34.6693 54.3561 35.0815 54.7048 35.3638 55.1641C35.646 55.6178 35.7871 56.1629 35.7871 56.7993V63H33.7451V61.7549H33.604C33.438 62.0426 33.2222 62.2917 32.9565 62.502C32.6965 62.7122 32.3976 62.8727 32.0601 62.9834C31.7225 63.0941 31.3517 63.1494 30.9478 63.1494ZM41.8384 63.0415C40.798 63.0415 40.0482 62.8506 39.5889 62.4688C39.1296 62.0869 38.8999 61.4616 38.8999 60.5928V55.5293H37.4888V53.9272H38.8999V51.7026H41V53.9272H42.9092V55.5293H41V60.103C41 60.5513 41.0941 60.8805 41.2822 61.0908C41.4759 61.2956 41.7858 61.3979 42.2119 61.3979C42.3613 61.3979 42.4831 61.3952 42.5771 61.3896C42.6768 61.3786 42.7874 61.3675 42.9092 61.3564V62.9502C42.7653 62.9779 42.5993 63 42.4111 63.0166C42.2285 63.0332 42.0376 63.0415 41.8384 63.0415Z" fill="#5D3889"/>
<path d="M42 30C42 31.0609 41.5786 32.0783 40.8284 32.8284C40.0783 33.5786 39.0609 34 38 34H14L6 42V10C6 8.93913 6.42143 7.92172 7.17157 7.17157C7.92172 6.42143 8.93913 6 10 6H38C39.0609 6 40.0783 6.42143 40.8284 7.17157C41.5786 7.92172 42 8.93913 42 10V30Z" stroke="#5D3889" stroke-width="4" stroke-linecap="round" stroke-linejoin="round"/>
</svg>
