<svg width="48" height="68" viewBox="0 0 48 68" fill="none" xmlns="http://www.w3.org/2000/svg">
<path d="M8.58936 63V51.022H11.0464L14.6489 60.2441H14.79L18.3843 51.022H20.8413V63H18.9155V54.4834H17.8696L19.9946 51.354L15.4458 63H13.9849L9.44434 51.354L11.5693 54.4834H10.5151V63H8.58936ZM26.0542 63.1494C25.4842 63.1494 24.9723 63.0387 24.5186 62.8174C24.0703 62.596 23.7161 62.2834 23.4561 61.8794C23.2015 61.4699 23.0742 60.9884 23.0742 60.4351V60.4185C23.0742 59.8817 23.207 59.4196 23.4727 59.0322C23.7383 58.6393 24.1284 58.3322 24.6431 58.1108C25.1577 57.8895 25.783 57.7594 26.519 57.7207L29.8726 57.5132V58.8745L26.8096 59.0737C26.2285 59.1069 25.7996 59.2287 25.5229 59.439C25.2463 59.6493 25.1079 59.9425 25.1079 60.3188V60.3354C25.1079 60.7228 25.2546 61.0244 25.5479 61.2402C25.8467 61.4561 26.2257 61.564 26.6851 61.564C27.1001 61.564 27.4709 61.481 27.7974 61.3149C28.1239 61.1489 28.3812 60.9248 28.5693 60.6426C28.7575 60.3548 28.8516 60.0311 28.8516 59.6714V56.7993C28.8516 56.3455 28.7077 55.9997 28.4199 55.7617C28.1322 55.5182 27.7061 55.3965 27.1416 55.3965C26.6712 55.3965 26.2866 55.4795 25.9878 55.6455C25.689 55.806 25.487 56.0356 25.3818 56.3345L25.3735 56.3677H23.4229L23.4312 56.293C23.4976 55.7839 23.6968 55.3384 24.0288 54.9565C24.3608 54.5747 24.8008 54.2786 25.3486 54.0684C25.8965 53.8581 26.5273 53.7529 27.2412 53.7529C28.027 53.7529 28.6911 53.8747 29.2334 54.1182C29.7757 54.3561 30.188 54.7048 30.4702 55.1641C30.7524 55.6178 30.8936 56.1629 30.8936 56.7993V63H28.8516V61.7549H28.7104C28.5444 62.0426 28.3286 62.2917 28.063 62.502C27.8029 62.7122 27.5041 62.8727 27.1665 62.9834C26.8289 63.0941 26.4582 63.1494 26.0542 63.1494ZM33.3755 66.0132V53.9272H35.4424V55.3467H35.5835C35.7495 55.0202 35.9653 54.7407 36.231 54.5083C36.5021 54.2759 36.8148 54.096 37.1689 53.9688C37.5231 53.8415 37.9132 53.7778 38.3394 53.7778C39.0975 53.7778 39.7533 53.9688 40.3066 54.3506C40.8656 54.7324 41.2972 55.2747 41.6016 55.9775C41.9115 56.6748 42.0664 57.5021 42.0664 58.4595V58.4761C42.0664 59.439 41.9142 60.269 41.6099 60.9663C41.3055 61.6636 40.8739 62.2031 40.3149 62.585C39.7616 62.9613 39.103 63.1494 38.3394 63.1494C37.9243 63.1494 37.5369 63.0858 37.1772 62.9585C36.8175 62.8257 36.5021 62.6403 36.231 62.4023C35.9598 62.1644 35.744 61.8822 35.5835 61.5557H35.4424V66.0132H33.3755ZM37.6919 61.4062C38.1623 61.4062 38.5662 61.29 38.9038 61.0576C39.2414 60.8197 39.5015 60.4821 39.6841 60.0449C39.8667 59.6022 39.958 59.0793 39.958 58.4761V58.4595C39.958 57.8452 39.8667 57.3195 39.6841 56.8823C39.5015 56.4451 39.2414 56.1104 38.9038 55.8779C38.5662 55.64 38.1623 55.521 37.6919 55.521C37.2215 55.521 36.8148 55.64 36.4717 55.8779C36.1341 56.1104 35.8713 56.4451 35.6831 56.8823C35.5005 57.3195 35.4092 57.8424 35.4092 58.4512V58.4678C35.4092 59.0765 35.5005 59.6022 35.6831 60.0449C35.8713 60.4821 36.1369 60.8197 36.48 61.0576C36.8231 61.29 37.2271 61.4062 37.6919 61.4062Z" fill="#5D3889"/>
<path d="M2 12V44L16 36L32 44L46 36V4L32 12L16 4L2 12Z" fill="#9B5DE5"/>
<path d="M16 36L2 44V12L16 4M16 36L32 44M16 36V4M32 44L46 36V4L32 12M32 44V12M32 12L16 4" stroke="#5D3889" stroke-width="4" stroke-linecap="round" stroke-linejoin="round"/>
</svg>
