<svg width="139" height="33" viewBox="0 0 139 33" fill="none" xmlns="http://www.w3.org/2000/svg">
<rect x="0.5" y="0.5" width="138" height="32" rx="9.5" fill="#F9CDEB"/>
<rect x="0.5" y="0.5" width="138" height="32" rx="9.5" stroke="black"/>
<path d="M42.44 25V8.2H44.456V22.984H51.98V25H42.44ZM58.7356 25.312C57.6316 25.312 56.6236 25.028 55.7116 24.46C54.8076 23.892 54.0836 23.132 53.5396 22.18C53.0036 21.22 52.7356 20.16 52.7356 19C52.7356 18.12 52.8916 17.3 53.2036 16.54C53.5156 15.772 53.9436 15.1 54.4876 14.524C55.0396 13.94 55.6796 13.484 56.4076 13.156C57.1356 12.828 57.9116 12.664 58.7356 12.664C59.8396 12.664 60.8436 12.948 61.7476 13.516C62.6596 14.084 63.3836 14.848 63.9196 15.808C64.4636 16.768 64.7356 17.832 64.7356 19C64.7356 19.872 64.5796 20.688 64.2676 21.448C63.9556 22.208 63.5236 22.88 62.9716 23.464C62.4276 24.04 61.7916 24.492 61.0636 24.82C60.3436 25.148 59.5676 25.312 58.7356 25.312ZM58.7356 23.296C59.4876 23.296 60.1636 23.1 60.7636 22.708C61.3716 22.308 61.8476 21.784 62.1916 21.136C62.5436 20.48 62.7196 19.768 62.7196 19C62.7196 18.216 62.5396 17.496 62.1796 16.84C61.8276 16.184 61.3516 15.66 60.7516 15.268C60.1516 14.876 59.4796 14.68 58.7356 14.68C57.9836 14.68 57.3076 14.88 56.7076 15.28C56.1076 15.672 55.6316 16.196 55.2796 16.852C54.9276 17.508 54.7516 18.224 54.7516 19C54.7516 19.8 54.9316 20.528 55.2916 21.184C55.6516 21.832 56.1356 22.348 56.7436 22.732C57.3516 23.108 58.0156 23.296 58.7356 23.296ZM76.0229 13H78.0389V25.384C78.0389 26.176 77.8669 26.912 77.5229 27.592C77.1869 28.28 76.7309 28.876 76.1549 29.38C75.5789 29.892 74.9229 30.288 74.1869 30.568C73.4509 30.856 72.6829 31 71.8829 31C71.0509 31 70.2469 30.812 69.4709 30.436C68.6949 30.068 68.0149 29.572 67.4309 28.948C66.8549 28.332 66.4389 27.64 66.1829 26.872L68.0309 26.032C68.1829 26.584 68.4549 27.08 68.8469 27.52C69.2469 27.968 69.7109 28.32 70.2389 28.576C70.7749 28.84 71.3229 28.972 71.8829 28.972C72.4109 28.972 72.9189 28.88 73.4069 28.696C73.9029 28.512 74.3469 28.256 74.7389 27.928C75.1389 27.608 75.4509 27.228 75.6749 26.788C75.9069 26.356 76.0229 25.888 76.0229 25.384V22.996C75.6149 23.684 75.0749 24.244 74.4029 24.676C73.7389 25.1 72.9629 25.312 72.0749 25.312C71.2269 25.312 70.4309 25.148 69.6869 24.82C68.9429 24.492 68.2909 24.04 67.7309 23.464C67.1709 22.88 66.7309 22.208 66.4109 21.448C66.0909 20.688 65.9309 19.872 65.9309 19C65.9309 18.128 66.0909 17.312 66.4109 16.552C66.7309 15.784 67.1709 15.112 67.7309 14.536C68.2909 13.952 68.9429 13.496 69.6869 13.168C70.4309 12.84 71.2269 12.676 72.0749 12.676C72.9629 12.676 73.7389 12.888 74.4029 13.312C75.0749 13.736 75.6149 14.296 76.0229 14.992V13ZM72.0869 23.356C72.8629 23.356 73.5349 23.156 74.1029 22.756C74.6789 22.356 75.1229 21.824 75.4349 21.16C75.7469 20.496 75.9029 19.776 75.9029 19C75.9029 18.2 75.7429 17.472 75.4229 16.816C75.1109 16.152 74.6669 15.624 74.0909 15.232C73.5229 14.832 72.8549 14.632 72.0869 14.632C71.3349 14.632 70.6469 14.828 70.0229 15.22C69.3989 15.612 68.9029 16.14 68.5349 16.804C68.1749 17.46 67.9949 18.192 67.9949 19C67.9949 19.808 68.1789 20.544 68.5469 21.208C68.9229 21.864 69.4189 22.388 70.0349 22.78C70.6589 23.164 71.3429 23.356 72.0869 23.356ZM80.7603 13H82.7763V25H80.7603V13ZM81.7923 11.044C81.4723 11.044 81.2043 10.94 80.9883 10.732C80.7723 10.524 80.6643 10.264 80.6643 9.952C80.6643 9.64 80.7723 9.38 80.9883 9.172C81.2043 8.964 81.4683 8.86 81.7803 8.86C82.0923 8.86 82.3563 8.964 82.5723 9.172C82.7883 9.38 82.8963 9.64 82.8963 9.952C82.8963 10.264 82.7883 10.524 82.5723 10.732C82.3643 10.94 82.1043 11.044 81.7923 11.044ZM96.1964 17.536V25H94.1804V17.98C94.1804 17.372 94.0324 16.82 93.7364 16.324C93.4404 15.828 93.0444 15.436 92.5484 15.148C92.0524 14.852 91.5004 14.704 90.8924 14.704C90.2924 14.704 89.7404 14.852 89.2364 15.148C88.7404 15.436 88.3444 15.828 88.0484 16.324C87.7524 16.82 87.6044 17.372 87.6044 17.98V25H85.5884V13H87.6044V14.5C88.0284 13.94 88.5644 13.496 89.2124 13.168C89.8604 12.832 90.5644 12.664 91.3244 12.664C92.2204 12.664 93.0364 12.884 93.7724 13.324C94.5164 13.756 95.1044 14.34 95.5364 15.076C95.9764 15.812 96.1964 16.632 96.1964 17.536Z" fill="black"/>
</svg>
