<svg width="48" height="68" viewBox="0 0 48 68" fill="none" xmlns="http://www.w3.org/2000/svg">
<path d="M10.6792 63V51.022H12.8208V61.1987H18.3076V63H10.6792ZM20.4326 63V53.9272H22.4912V63H20.4326ZM21.4702 52.4082C21.1326 52.4082 20.8421 52.2892 20.5986 52.0513C20.3551 51.8133 20.2334 51.5283 20.2334 51.1963C20.2334 50.8532 20.3551 50.5654 20.5986 50.333C20.8421 50.0951 21.1326 49.9761 21.4702 49.9761C21.8078 49.9761 22.0955 50.0951 22.3335 50.333C22.577 50.5654 22.6987 50.8532 22.6987 51.1963C22.6987 51.5283 22.577 51.8133 22.3335 52.0513C22.0955 52.2892 21.8078 52.4082 21.4702 52.4082ZM28.4678 63.1826C27.6986 63.1826 27.0345 63.0747 26.4756 62.8589C25.9222 62.6375 25.485 62.3332 25.1641 61.9458C24.8431 61.5529 24.6522 61.0991 24.5913 60.5845V60.5679H26.6416L26.6499 60.5845C26.7606 60.8999 26.9681 61.1572 27.2725 61.3564C27.5768 61.5557 27.9863 61.6553 28.501 61.6553C28.8441 61.6553 29.1457 61.6082 29.4058 61.5142C29.6659 61.4146 29.8706 61.279 30.02 61.1074C30.1694 60.9359 30.2441 60.7367 30.2441 60.5098V60.4932C30.2441 60.2275 30.1362 60.0062 29.9204 59.8291C29.7046 59.6465 29.3477 59.4998 28.8496 59.3892L27.3804 59.0571C26.8048 58.9299 26.3289 58.7528 25.9526 58.5259C25.5763 58.299 25.2941 58.0195 25.106 57.6875C24.9233 57.3555 24.832 56.9681 24.832 56.5254V56.5171C24.832 55.9692 24.9842 55.4878 25.2886 55.0728C25.5985 54.6577 26.0273 54.334 26.5752 54.1016C27.123 53.8691 27.7539 53.7529 28.4678 53.7529C29.2038 53.7529 29.8374 53.8636 30.3687 54.085C30.8999 54.3063 31.3149 54.6107 31.6138 54.998C31.9126 55.3854 32.0841 55.8254 32.1284 56.3179V56.3345H30.186L30.1777 56.3096C30.1003 56.0218 29.9149 55.7783 29.6216 55.5791C29.3338 55.3743 28.9465 55.272 28.4595 55.272C28.1551 55.272 27.8812 55.319 27.6377 55.4131C27.3997 55.5072 27.2116 55.64 27.0732 55.8115C26.9404 55.9775 26.874 56.174 26.874 56.4009V56.4092C26.874 56.5863 26.9183 56.7412 27.0068 56.874C27.1009 57.0068 27.2476 57.123 27.4468 57.2227C27.646 57.3223 27.9089 57.4108 28.2354 57.4883L29.7046 57.812C30.5955 58.0112 31.2541 58.3073 31.6802 58.7002C32.1063 59.0931 32.3193 59.6216 32.3193 60.2856V60.3022C32.3193 60.8778 32.1533 61.3813 31.8213 61.813C31.4893 62.2446 31.0327 62.5822 30.4517 62.8257C29.8706 63.0636 29.2093 63.1826 28.4678 63.1826ZM37.9224 63.0415C36.882 63.0415 36.1322 62.8506 35.6729 62.4688C35.2135 62.0869 34.9839 61.4616 34.9839 60.5928V55.5293H33.5728V53.9272H34.9839V51.7026H37.084V53.9272H38.9932V55.5293H37.084V60.103C37.084 60.5513 37.1781 60.8805 37.3662 61.0908C37.5599 61.2956 37.8698 61.3979 38.2959 61.3979C38.4453 61.3979 38.5671 61.3952 38.6611 61.3896C38.7607 61.3786 38.8714 61.3675 38.9932 61.3564V62.9502C38.8493 62.9779 38.6833 63 38.4951 63.0166C38.3125 63.0332 38.1216 63.0415 37.9224 63.0415Z" fill="#5D3889"/>
<path d="M42 20C42 34 24 46 24 46C24 46 6 34 6 20C6 15.2261 7.89642 10.6477 11.2721 7.27208C14.6477 3.89642 19.2261 2 24 2C28.7739 2 33.3523 3.89642 36.7279 7.27208C40.1036 10.6477 42 15.2261 42 20Z" stroke="#5D3889" stroke-width="4" stroke-linecap="round" stroke-linejoin="round"/>
<path d="M24 26C27.3137 26 30 23.3137 30 20C30 16.6863 27.3137 14 24 14C20.6863 14 18 16.6863 18 20C18 23.3137 20.6863 26 24 26Z" stroke="#5D3889" stroke-width="4" stroke-linecap="round" stroke-linejoin="round"/>
</svg>
