<svg width="180" height="33" viewBox="0 0 180 33" fill="none" xmlns="http://www.w3.org/2000/svg">
<rect x="0.5" y="0.5" width="179" height="32" rx="9.5" fill="#CDAEF2"/>
<rect x="0.5" y="0.5" width="179" height="32" rx="9.5" stroke="black"/>
<path d="M48.44 25V8.2H54.344C55.24 8.2 56.048 8.42 56.768 8.86C57.496 9.3 58.072 9.896 58.496 10.648C58.928 11.392 59.144 12.224 59.144 13.144C59.144 13.952 58.984 14.688 58.664 15.352C58.344 16.016 57.904 16.572 57.344 17.02C56.792 17.46 56.164 17.764 55.46 17.932L59.54 25H57.212L53.204 18.1H50.456V25H48.44ZM50.456 16.084H54.14C54.684 16.084 55.184 15.952 55.64 15.688C56.096 15.416 56.456 15.052 56.72 14.596C56.992 14.132 57.128 13.612 57.128 13.036C57.128 12.452 56.992 11.932 56.72 11.476C56.456 11.012 56.096 10.648 55.64 10.384C55.184 10.112 54.684 9.976 54.14 9.976H50.456V16.084ZM66.7981 25.312C65.6941 25.312 64.6861 25.028 63.7741 24.46C62.8701 23.892 62.1461 23.132 61.6021 22.18C61.0661 21.22 60.7981 20.16 60.7981 19C60.7981 18.12 60.9541 17.3 61.2661 16.54C61.5781 15.772 62.0061 15.1 62.5501 14.524C63.1021 13.94 63.7421 13.484 64.4701 13.156C65.1981 12.828 65.9741 12.664 66.7981 12.664C67.7021 12.664 68.5301 12.848 69.2821 13.216C70.0421 13.576 70.6901 14.08 71.2261 14.728C71.7701 15.376 72.1741 16.128 72.4381 16.984C72.7101 17.84 72.8101 18.756 72.7381 19.732H62.9461C63.0421 20.412 63.2661 21.02 63.6181 21.556C63.9701 22.084 64.4181 22.504 64.9621 22.816C65.5141 23.128 66.1261 23.288 66.7981 23.296C67.5181 23.296 68.1701 23.112 68.7541 22.744C69.3381 22.368 69.8101 21.856 70.1701 21.208L72.2221 21.688C71.7421 22.752 71.0181 23.624 70.0501 24.304C69.0821 24.976 67.9981 25.312 66.7981 25.312ZM62.8861 18.148H70.7101C70.6461 17.476 70.4301 16.864 70.0621 16.312C69.6941 15.752 69.2261 15.304 68.6581 14.968C68.0901 14.632 67.4701 14.464 66.7981 14.464C66.1261 14.464 65.5101 14.628 64.9501 14.956C64.3901 15.284 63.9261 15.728 63.5581 16.288C63.1981 16.84 62.9741 17.46 62.8861 18.148ZM84.062 13H86.078V25.384C86.078 26.176 85.906 26.912 85.562 27.592C85.226 28.28 84.77 28.876 84.194 29.38C83.618 29.892 82.962 30.288 82.226 30.568C81.49 30.856 80.722 31 79.922 31C79.09 31 78.286 30.812 77.51 30.436C76.734 30.068 76.054 29.572 75.47 28.948C74.894 28.332 74.478 27.64 74.222 26.872L76.07 26.032C76.222 26.584 76.494 27.08 76.886 27.52C77.286 27.968 77.75 28.32 78.278 28.576C78.814 28.84 79.362 28.972 79.922 28.972C80.45 28.972 80.958 28.88 81.446 28.696C81.942 28.512 82.386 28.256 82.778 27.928C83.178 27.608 83.49 27.228 83.714 26.788C83.946 26.356 84.062 25.888 84.062 25.384V22.996C83.654 23.684 83.114 24.244 82.442 24.676C81.778 25.1 81.002 25.312 80.114 25.312C79.266 25.312 78.47 25.148 77.726 24.82C76.982 24.492 76.33 24.04 75.77 23.464C75.21 22.88 74.77 22.208 74.45 21.448C74.13 20.688 73.97 19.872 73.97 19C73.97 18.128 74.13 17.312 74.45 16.552C74.77 15.784 75.21 15.112 75.77 14.536C76.33 13.952 76.982 13.496 77.726 13.168C78.47 12.84 79.266 12.676 80.114 12.676C81.002 12.676 81.778 12.888 82.442 13.312C83.114 13.736 83.654 14.296 84.062 14.992V13ZM80.126 23.356C80.902 23.356 81.574 23.156 82.142 22.756C82.718 22.356 83.162 21.824 83.474 21.16C83.786 20.496 83.942 19.776 83.942 19C83.942 18.2 83.782 17.472 83.462 16.816C83.15 16.152 82.706 15.624 82.13 15.232C81.562 14.832 80.894 14.632 80.126 14.632C79.374 14.632 78.686 14.828 78.062 15.22C77.438 15.612 76.942 16.14 76.574 16.804C76.214 17.46 76.034 18.192 76.034 19C76.034 19.808 76.218 20.544 76.586 21.208C76.962 21.864 77.458 22.388 78.074 22.78C78.698 23.164 79.382 23.356 80.126 23.356ZM88.7994 13H90.8154V25H88.7994V13ZM89.8314 11.044C89.5114 11.044 89.2434 10.94 89.0274 10.732C88.8114 10.524 88.7034 10.264 88.7034 9.952C88.7034 9.64 88.8114 9.38 89.0274 9.172C89.2434 8.964 89.5074 8.86 89.8194 8.86C90.1314 8.86 90.3954 8.964 90.6114 9.172C90.8274 9.38 90.9354 9.64 90.9354 9.952C90.9354 10.264 90.8274 10.524 90.6114 10.732C90.4034 10.94 90.1434 11.044 89.8314 11.044ZM97.2406 25.228C96.5926 25.204 95.9606 25.084 95.3446 24.868C94.7366 24.644 94.2006 24.344 93.7366 23.968C93.2806 23.584 92.9486 23.144 92.7406 22.648L94.4686 21.904C94.5886 22.176 94.8046 22.432 95.1166 22.672C95.4286 22.912 95.7886 23.104 96.1966 23.248C96.6046 23.392 97.0166 23.464 97.4326 23.464C97.8726 23.464 98.2846 23.396 98.6686 23.26C99.0526 23.124 99.3646 22.924 99.6046 22.66C99.8526 22.388 99.9766 22.064 99.9766 21.688C99.9766 21.288 99.8406 20.976 99.5686 20.752C99.3046 20.52 98.9686 20.34 98.5606 20.212C98.1606 20.076 97.7526 19.948 97.3366 19.828C96.5126 19.62 95.7766 19.372 95.1286 19.084C94.4806 18.788 93.9686 18.416 93.5926 17.968C93.2246 17.512 93.0406 16.932 93.0406 16.228C93.0406 15.484 93.2446 14.84 93.6526 14.296C94.0686 13.752 94.6126 13.332 95.2846 13.036C95.9566 12.74 96.6766 12.592 97.4446 12.592C98.4126 12.592 99.2966 12.8 100.097 13.216C100.897 13.632 101.493 14.196 101.885 14.908L100.265 15.856C100.129 15.568 99.9206 15.316 99.6406 15.1C99.3606 14.876 99.0406 14.7 98.6806 14.572C98.3206 14.444 97.9526 14.376 97.5766 14.368C97.1126 14.352 96.6766 14.412 96.2686 14.548C95.8686 14.684 95.5446 14.892 95.2966 15.172C95.0566 15.444 94.9366 15.784 94.9366 16.192C94.9366 16.592 95.0646 16.896 95.3206 17.104C95.5846 17.312 95.9246 17.48 96.3406 17.608C96.7646 17.728 97.2246 17.868 97.7206 18.028C98.4486 18.26 99.1286 18.528 99.7606 18.832C100.393 19.136 100.901 19.516 101.285 19.972C101.677 20.428 101.869 20.992 101.861 21.664C101.861 22.4 101.641 23.044 101.201 23.596C100.761 24.14 100.189 24.556 99.4846 24.844C98.7886 25.132 98.0406 25.26 97.2406 25.228ZM110.133 15.016H107.409L107.397 25H105.381L105.393 15.016H103.329V13H105.393L105.381 9.232H107.397L107.409 13H110.133V15.016ZM117.259 25.312C116.155 25.312 115.147 25.028 114.235 24.46C113.331 23.892 112.607 23.132 112.063 22.18C111.527 21.22 111.259 20.16 111.259 19C111.259 18.12 111.415 17.3 111.727 16.54C112.039 15.772 112.467 15.1 113.011 14.524C113.563 13.94 114.203 13.484 114.931 13.156C115.659 12.828 116.435 12.664 117.259 12.664C118.163 12.664 118.991 12.848 119.743 13.216C120.503 13.576 121.151 14.08 121.687 14.728C122.231 15.376 122.635 16.128 122.899 16.984C123.171 17.84 123.271 18.756 123.199 19.732H113.407C113.503 20.412 113.727 21.02 114.079 21.556C114.431 22.084 114.879 22.504 115.423 22.816C115.975 23.128 116.587 23.288 117.259 23.296C117.979 23.296 118.631 23.112 119.215 22.744C119.799 22.368 120.271 21.856 120.631 21.208L122.683 21.688C122.203 22.752 121.479 23.624 120.511 24.304C119.543 24.976 118.459 25.312 117.259 25.312ZM113.347 18.148H121.171C121.107 17.476 120.891 16.864 120.523 16.312C120.155 15.752 119.687 15.304 119.119 14.968C118.551 14.632 117.931 14.464 117.259 14.464C116.587 14.464 115.971 14.628 115.411 14.956C114.851 15.284 114.387 15.728 114.019 16.288C113.659 16.84 113.435 17.46 113.347 18.148ZM125.221 25V13H127.237V14.5C127.661 13.94 128.197 13.496 128.845 13.168C129.493 12.832 130.197 12.664 130.957 12.664C131.421 12.664 131.869 12.724 132.301 12.844L131.485 14.86C131.157 14.756 130.837 14.704 130.525 14.704C129.925 14.704 129.373 14.852 128.869 15.148C128.373 15.436 127.977 15.828 127.681 16.324C127.385 16.82 127.237 17.372 127.237 17.98V25H125.221Z" fill="black"/>
</svg>
