<svg width="80" height="80" viewBox="0 0 80 80" fill="none" xmlns="http://www.w3.org/2000/svg">
<path d="M57.2197 10.5L57.5273 10.5068C58.9499 10.5722 60.2069 11.0952 61.2627 12.0566L61.4863 12.2686V12.2695C62.6591 13.4406 63.2597 14.8784 63.2598 16.5293V36.4414L62.0645 36.2031C61.5517 36.1008 61.0403 36.0372 60.5303 36.0117C59.987 35.9846 59.4436 35.9707 58.9004 35.9707C58.6317 35.9707 58.3625 35.9753 58.0938 35.9844H58.0918C57.8458 35.9922 57.5994 36.0129 57.3525 36.0459L56.2197 36.1973V17.5293H14.54V52.4121H39.9668L39.8154 53.5449C39.7824 53.7911 39.7618 54.0369 39.7539 54.2822V54.2842C39.7448 54.5521 39.7402 54.82 39.7402 55.0879C39.7402 55.63 39.7531 56.1727 39.7803 56.7148C39.8058 57.2235 39.8702 57.7338 39.9727 58.2451L40.2119 59.4414H18.9932L9.20605 69.208L7.5 70.9102V16.5293C7.50003 14.8783 8.10114 13.4405 9.27441 12.2695C10.4474 11.099 11.8875 10.5 13.54 10.5H57.2197ZM62.4199 41.5146V51.5732H72.5V58.6025H62.4199V68.6621H55.3799V58.6025H45.2998V51.5732H55.3799V41.5146H62.4199ZM39.7402 38.1621V45.1914H20.9404V38.1621H39.7402ZM49.8203 23.9121V30.9414H20.9404V23.9121H49.8203Z" fill="#CDAEF2" stroke="black" stroke-width="2"/>
</svg>
