<svg width="37" height="37" viewBox="0 0 37 37" fill="none" xmlns="http://www.w3.org/2000/svg">
<g clip-path="url(#clip0_110_2468)">
<path d="M18.2865 22.9173C20.7905 22.9173 22.8205 20.8873 22.8205 18.3833C22.8205 15.8792 20.7905 13.8492 18.2865 13.8492C15.7824 13.8492 13.7524 15.8792 13.7524 18.3833C13.7524 20.8873 15.7824 22.9173 18.2865 22.9173Z" stroke="#1E1E1E" stroke-width="4.26734" stroke-linecap="round" stroke-linejoin="round"/>
<path d="M29.4704 22.9173C29.2693 23.3732 29.2092 23.8788 29.2981 24.3691C29.387 24.8594 29.6208 25.3118 29.9692 25.668L30.0599 25.7586C30.3409 26.0394 30.5639 26.3727 30.716 26.7397C30.8681 27.1066 30.9464 27.5 30.9464 27.8972C30.9464 28.2944 30.8681 28.6878 30.716 29.0547C30.5639 29.4217 30.3409 29.755 30.0599 30.0358C29.7791 30.3168 29.4458 30.5398 29.0788 30.6919C28.7119 30.844 28.3185 30.9223 27.9213 30.9223C27.5241 30.9223 27.1308 30.844 26.7638 30.6919C26.3969 30.5398 26.0635 30.3168 25.7828 30.0358L25.6921 29.9451C25.3359 29.5967 24.8835 29.3629 24.3932 29.274C23.9029 29.1851 23.3973 29.2452 22.9414 29.4463C22.4944 29.6379 22.1132 29.956 21.8446 30.3615C21.5761 30.767 21.432 31.2421 21.4301 31.7285V31.9854C21.4301 32.7871 21.1116 33.5559 20.5447 34.1228C19.9779 34.6896 19.209 35.0081 18.4074 35.0081C17.6057 35.0081 16.8369 34.6896 16.27 34.1228C15.7031 33.5559 15.3847 32.7871 15.3847 31.9854V31.8494C15.373 31.3491 15.211 30.864 14.9199 30.457C14.6289 30.05 14.222 29.74 13.7524 29.5672C13.2966 29.3661 12.7909 29.3061 12.3006 29.3949C11.8104 29.4838 11.358 29.7176 11.0018 30.066L10.9111 30.1567C10.6304 30.4377 10.297 30.6607 9.93003 30.8128C9.56308 30.9649 9.16975 31.0432 8.77252 31.0432C8.37529 31.0432 7.98196 30.9649 7.61501 30.8128C7.24806 30.6607 6.91469 30.4377 6.63396 30.1567C6.35292 29.8759 6.12997 29.5426 5.97785 29.1756C5.82574 28.8087 5.74744 28.4153 5.74744 28.0181C5.74744 27.6209 5.82574 27.2276 5.97785 26.8606C6.12997 26.4937 6.35292 26.1603 6.63396 25.8796L6.72464 25.7889C7.07306 25.4327 7.30679 24.9803 7.39569 24.49C7.48458 23.9997 7.42457 23.4941 7.22339 23.0382C7.0318 22.5912 6.71369 22.21 6.30821 21.9414C5.90273 21.6729 5.42758 21.5288 4.94125 21.5269H4.68432C3.88265 21.5269 3.11381 21.2084 2.54695 20.6415C1.98008 20.0747 1.66162 19.3058 1.66162 18.5042C1.66162 17.7025 1.98008 16.9337 2.54695 16.3668C3.11381 15.7999 3.88265 15.4815 4.68432 15.4815H4.82034C5.32059 15.4698 5.80575 15.3078 6.21275 15.0167C6.61974 14.7257 6.92975 14.3188 7.10248 13.8492C7.30366 13.3934 7.36367 12.8877 7.27478 12.3974C7.18588 11.9072 6.95215 11.4548 6.60373 11.0986L6.51305 11.0079C6.23201 10.7272 6.00906 10.3938 5.85695 10.0268C5.70483 9.65988 5.62653 9.26655 5.62653 8.86932C5.62653 8.47209 5.70483 8.07876 5.85695 7.71181C6.00906 7.34486 6.23201 7.01149 6.51305 6.73076C6.79378 6.44972 7.12715 6.22677 7.4941 6.07466C7.86105 5.92254 8.25438 5.84424 8.65161 5.84424C9.04884 5.84424 9.44217 5.92254 9.80912 6.07466C10.1761 6.22677 10.5094 6.44972 10.7902 6.73076L10.8809 6.82144C11.237 7.16986 11.6894 7.40359 12.1797 7.49249C12.67 7.58138 13.1757 7.52137 13.6315 7.32019H13.7524C14.1994 7.1286 14.5807 6.81049 14.8492 6.40501C15.1177 5.99953 15.2618 5.52438 15.2638 5.03805V4.78112C15.2638 3.97945 15.5822 3.21062 16.1491 2.64375C16.716 2.07688 17.4848 1.75842 18.2865 1.75842C19.0881 1.75842 19.857 2.07688 20.4238 2.64375C20.9907 3.21062 21.3092 3.97945 21.3092 4.78112V4.91714C21.3111 5.40347 21.4552 5.87863 21.7237 6.28411C21.9923 6.68959 22.3735 7.0077 22.8205 7.19928C23.2764 7.40046 23.782 7.46048 24.2723 7.37158C24.7626 7.28268 25.215 7.04896 25.5712 6.70053L25.6618 6.60985C25.9426 6.32881 26.2759 6.10586 26.6429 5.95375C27.0098 5.80163 27.4032 5.72334 27.8004 5.72334C28.1976 5.72334 28.591 5.80163 28.9579 5.95375C29.3249 6.10586 29.6582 6.32881 29.939 6.60985C30.22 6.89058 30.443 7.22395 30.5951 7.5909C30.7472 7.95785 30.8255 8.35118 30.8255 8.74841C30.8255 9.14564 30.7472 9.53898 30.5951 9.90593C30.443 10.2729 30.22 10.6062 29.939 10.887L29.8483 10.9777C29.4999 11.3338 29.2661 11.7862 29.1772 12.2765C29.0883 12.7668 29.1484 13.2725 29.3495 13.7283V13.8492C29.5411 14.2962 29.8592 14.6775 30.2647 14.946C30.6702 15.2145 31.1453 15.3586 31.6317 15.3606H31.8886C32.6903 15.3606 33.4591 15.679 34.026 16.2459C34.5928 16.8128 34.9113 17.5816 34.9113 18.3833C34.9113 19.1849 34.5928 19.9538 34.026 20.5206C33.4591 21.0875 32.6903 21.406 31.8886 21.406H31.7526C31.2663 21.4079 30.7911 21.552 30.3856 21.8205C29.9801 22.0891 29.662 22.4703 29.4704 22.9173Z" stroke="#1E1E1E" stroke-width="4.26734" stroke-linecap="round" stroke-linejoin="round"/>
</g>
<defs>
<clipPath id="clip0_110_2468">
<rect width="36.2724" height="36.2724" fill="white" transform="translate(0.150391 0.247192)"/>
</clipPath>
</defs>
</svg>
