<svg width="178" height="52" viewBox="0 0 178 52" fill="none" xmlns="http://www.w3.org/2000/svg">
<g clip-path="url(#clip0_110_2489)">
<path d="M57.7591 11.1237H74.8285C83.0772 11.1237 89.7642 17.8106 89.7642 26.0593C89.7642 34.3081 83.0772 40.995 74.8285 40.995H57.7591C49.5104 40.995 42.8234 34.3081 42.8234 26.0593C42.8234 17.8106 49.5104 11.1237 57.7591 11.1237Z" stroke="#1E1E1E" stroke-width="4.26734" stroke-linecap="round" stroke-linejoin="round"/>
<path d="M74.8285 32.4604C71.2933 32.4604 68.4275 29.5945 68.4275 26.0593C68.4275 22.5242 71.2933 19.6583 74.8285 19.6583C78.3637 19.6583 81.2295 22.5242 81.2295 26.0593C81.2295 29.5945 78.3637 32.4604 74.8285 32.4604Z" stroke="#1E1E1E" stroke-width="4.26734" stroke-linecap="round" stroke-linejoin="round"/>
</g>
<path d="M106.592 14.5458C106.519 13.9315 106.224 13.4547 105.707 13.1152C105.189 12.7758 104.555 12.6061 103.803 12.6061C103.254 12.6061 102.773 12.695 102.361 12.8728C101.952 13.0506 101.633 13.2951 101.403 13.6062C101.177 13.9174 101.063 14.271 101.063 14.667C101.063 14.9984 101.142 15.2833 101.3 15.5217C101.461 15.7561 101.668 15.952 101.918 16.1096C102.169 16.2632 102.431 16.3905 102.706 16.4915C102.981 16.5885 103.233 16.6673 103.464 16.7279L104.725 17.0674C105.048 17.1522 105.408 17.2694 105.804 17.4189C106.204 17.5685 106.585 17.7725 106.949 18.0312C107.317 18.2857 107.62 18.6131 107.858 19.0131C108.097 19.4132 108.216 19.9042 108.216 20.4861C108.216 21.1569 108.04 21.7631 107.689 22.3046C107.341 22.8461 106.832 23.2764 106.161 23.5957C105.494 23.9149 104.684 24.0745 103.73 24.0745C102.841 24.0745 102.072 23.9311 101.421 23.6442C100.774 23.3573 100.265 22.9572 99.8935 22.444C99.5258 21.9308 99.3177 21.3347 99.2692 20.6558H100.821C100.861 21.1246 101.019 21.5125 101.294 21.8196C101.573 22.1227 101.924 22.349 102.348 22.4985C102.777 22.644 103.237 22.7167 103.73 22.7167C104.304 22.7167 104.82 22.6238 105.276 22.4379C105.733 22.248 106.094 21.9853 106.361 21.6499C106.628 21.3105 106.761 20.9144 106.761 20.4618C106.761 20.0497 106.646 19.7143 106.416 19.4556C106.185 19.197 105.882 18.9869 105.507 18.8252C105.131 18.6636 104.725 18.5221 104.288 18.4009L102.761 17.9645C101.791 17.6857 101.023 17.2876 100.457 16.7704C99.8915 16.2531 99.6086 15.5762 99.6086 14.7397C99.6086 14.0447 99.7965 13.4385 100.172 12.9213C100.552 12.4 101.061 11.9959 101.7 11.709C102.342 11.418 103.06 11.2725 103.852 11.2725C104.652 11.2725 105.363 11.416 105.985 11.7029C106.608 11.9858 107.101 12.3737 107.464 12.8667C107.832 13.3597 108.026 13.9194 108.046 14.5458H106.592ZM114.276 24.0503C113.436 24.0503 112.698 23.8503 112.064 23.4502C111.433 23.0501 110.94 22.4905 110.585 21.7711C110.233 21.0518 110.057 20.2113 110.057 19.2495C110.057 18.2797 110.233 17.4331 110.585 16.7097C110.94 15.9864 111.433 15.4247 112.064 15.0246C112.698 14.6246 113.436 14.4245 114.276 14.4245C115.117 14.4245 115.852 14.6246 116.482 15.0246C117.117 15.4247 117.61 15.9864 117.962 16.7097C118.317 17.4331 118.495 18.2797 118.495 19.2495C118.495 20.2113 118.317 21.0518 117.962 21.7711C117.61 22.4905 117.117 23.0501 116.482 23.4502C115.852 23.8503 115.117 24.0503 114.276 24.0503ZM114.276 22.7652C114.915 22.7652 115.44 22.6016 115.852 22.2743C116.264 21.9469 116.569 21.5166 116.767 20.9831C116.965 20.4497 117.064 19.8719 117.064 19.2495C117.064 18.6272 116.965 18.0473 116.767 17.5099C116.569 16.9724 116.264 16.538 115.852 16.2066C115.44 15.8753 114.915 15.7096 114.276 15.7096C113.638 15.7096 113.112 15.8753 112.7 16.2066C112.288 16.538 111.983 16.9724 111.785 17.5099C111.587 18.0473 111.488 18.6272 111.488 19.2495C111.488 19.8719 111.587 20.4497 111.785 20.9831C111.983 21.5166 112.288 21.9469 112.7 22.2743C113.112 22.6016 113.638 22.7652 114.276 22.7652ZM120.679 23.8563V14.5458H122.061V15.952H122.158C122.327 15.4914 122.634 15.1176 123.079 14.8307C123.523 14.5437 124.025 14.4003 124.582 14.4003C124.687 14.4003 124.819 14.4023 124.976 14.4063C125.134 14.4104 125.253 14.4165 125.334 14.4245V15.8793C125.285 15.8672 125.174 15.849 125 15.8248C124.831 15.7965 124.651 15.7823 124.461 15.7823C124.008 15.7823 123.604 15.8773 123.249 16.0672C122.897 16.2531 122.618 16.5117 122.412 16.8431C122.21 17.1704 122.109 17.5442 122.109 17.9645V23.8563H120.679ZM131.662 14.5458V15.7581H126.837V14.5458H131.662ZM128.243 12.3151H129.674V21.1892C129.674 21.5933 129.733 21.8964 129.85 22.0985C129.971 22.2965 130.125 22.4298 130.31 22.4985C130.5 22.5632 130.7 22.5955 130.911 22.5955C131.068 22.5955 131.197 22.5874 131.298 22.5713C131.399 22.5511 131.48 22.5349 131.541 22.5228L131.832 23.8078C131.735 23.8442 131.6 23.8806 131.426 23.9169C131.252 23.9573 131.032 23.9776 130.765 23.9776C130.361 23.9776 129.965 23.8907 129.577 23.7169C129.193 23.5431 128.874 23.2785 128.619 22.9228C128.369 22.5672 128.243 22.1187 128.243 21.5772V12.3151ZM138.809 23.8563V11.4422H140.239V16.0248H140.36C140.466 15.8631 140.611 15.6571 140.797 15.4065C140.987 15.1519 141.258 14.9256 141.609 14.7276C141.965 14.5256 142.446 14.4245 143.052 14.4245C143.836 14.4245 144.527 14.6205 145.125 15.0125C145.723 15.4045 146.19 15.9601 146.525 16.6794C146.861 17.3987 147.028 18.2474 147.028 19.2253C147.028 20.2113 146.861 21.066 146.525 21.7893C146.19 22.5086 145.725 23.0663 145.131 23.4623C144.537 23.8543 143.852 24.0503 143.076 24.0503C142.478 24.0503 141.999 23.9513 141.639 23.7533C141.28 23.5512 141.003 23.3229 140.809 23.0683C140.615 22.8097 140.466 22.5955 140.36 22.4258H140.191V23.8563H138.809ZM140.215 19.201C140.215 19.9042 140.318 20.5245 140.524 21.0619C140.73 21.5954 141.031 22.0136 141.427 22.3167C141.823 22.6157 142.308 22.7652 142.882 22.7652C143.48 22.7652 143.979 22.6076 144.379 22.2924C144.783 21.9732 145.086 21.5448 145.289 21.0074C145.495 20.4659 145.598 19.8638 145.598 19.201C145.598 18.5464 145.497 17.9564 145.295 17.4311C145.097 16.9017 144.796 16.4834 144.391 16.1763C143.991 15.8652 143.488 15.7096 142.882 15.7096C142.3 15.7096 141.811 15.8571 141.415 16.1521C141.019 16.443 140.72 16.8512 140.518 17.3765C140.316 17.8978 140.215 18.506 140.215 19.201ZM149.804 27.3478C149.562 27.3478 149.346 27.3276 149.156 27.2872C148.966 27.2508 148.835 27.2144 148.762 27.1781L149.126 25.9173C149.473 26.0062 149.78 26.0385 150.047 26.0142C150.314 25.99 150.55 25.8708 150.756 25.6566C150.966 25.4465 151.158 25.105 151.332 24.6322L151.599 23.9048L148.156 14.5458H149.707L152.278 21.9651H152.375L154.945 14.5458H156.496L152.544 25.2141C152.366 25.695 152.146 26.093 151.884 26.4082C151.621 26.7275 151.316 26.9639 150.968 27.1174C150.625 27.271 150.237 27.3478 149.804 27.3478ZM159.427 23.9533C159.128 23.9533 158.871 23.8462 158.657 23.632C158.443 23.4179 158.336 23.1613 158.336 22.8622C158.336 22.5632 158.443 22.3066 158.657 22.0924C158.871 21.8782 159.128 21.7711 159.427 21.7711C159.726 21.7711 159.983 21.8782 160.197 22.0924C160.411 22.3066 160.518 22.5632 160.518 22.8622C160.518 23.0602 160.468 23.2421 160.367 23.4078C160.27 23.5735 160.138 23.7068 159.973 23.8078C159.811 23.9048 159.629 23.9533 159.427 23.9533ZM159.427 17.0431C159.128 17.0431 158.871 16.936 158.657 16.7219C158.443 16.5077 158.336 16.2511 158.336 15.952C158.336 15.653 158.443 15.3964 158.657 15.1822C158.871 14.9681 159.128 14.861 159.427 14.861C159.726 14.861 159.983 14.9681 160.197 15.1822C160.411 15.3964 160.518 15.653 160.518 15.952C160.518 16.1501 160.468 16.3319 160.367 16.4976C160.27 16.6633 160.138 16.7966 159.973 16.8977C159.811 16.9946 159.629 17.0431 159.427 17.0431Z" fill="black"/>
<path d="M99.8026 44.8563V32.4422H107.295V33.7758H101.306V37.9704H106.907V39.3039H101.306V43.5228H107.392V44.8563H99.8026ZM110.877 35.5458L113.108 39.3524L115.338 35.5458H116.987L113.981 40.201L116.987 44.8563H115.338L113.108 41.2436L110.877 44.8563H109.228L112.186 40.201L109.228 35.5458H110.877ZM119.028 48.3478V35.5458H120.41V37.0248H120.58C120.685 36.8631 120.831 36.6571 121.017 36.4065C121.206 36.1519 121.477 35.9256 121.829 35.7276C122.184 35.5256 122.665 35.4245 123.271 35.4245C124.055 35.4245 124.746 35.6205 125.344 36.0125C125.943 36.4045 126.409 36.9601 126.745 37.6794C127.08 38.3987 127.248 39.2474 127.248 40.2253C127.248 41.2113 127.08 42.066 126.745 42.7893C126.409 43.5086 125.945 44.0663 125.351 44.4623C124.757 44.8543 124.072 45.0503 123.296 45.0503C122.698 45.0503 122.219 44.9513 121.859 44.7533C121.499 44.5512 121.223 44.3229 121.029 44.0683C120.835 43.8097 120.685 43.5955 120.58 43.4258H120.459V48.3478H119.028ZM120.435 40.201C120.435 40.9042 120.538 41.5245 120.744 42.0619C120.95 42.5954 121.251 43.0136 121.647 43.3167C122.043 43.6157 122.528 43.7652 123.102 43.7652C123.7 43.7652 124.199 43.6076 124.599 43.2924C125.003 42.9732 125.306 42.5448 125.508 42.0074C125.714 41.4659 125.817 40.8638 125.817 40.201C125.817 39.5464 125.716 38.9564 125.514 38.4311C125.316 37.9017 125.015 37.4834 124.611 37.1763C124.211 36.8652 123.708 36.7096 123.102 36.7096C122.52 36.7096 122.031 36.8571 121.635 37.1521C121.239 37.443 120.94 37.8512 120.738 38.3765C120.536 38.8978 120.435 39.506 120.435 40.201ZM129.43 44.8563V35.5458H130.861V44.8563H129.43ZM130.157 33.994C129.879 33.994 129.638 33.899 129.436 33.7091C129.238 33.5192 129.139 33.2909 129.139 33.0242C129.139 32.7574 129.238 32.5291 129.436 32.3392C129.638 32.1493 129.879 32.0543 130.157 32.0543C130.436 32.0543 130.675 32.1493 130.873 32.3392C131.075 32.5291 131.176 32.7574 131.176 33.0242C131.176 33.2909 131.075 33.5192 130.873 33.7091C130.675 33.899 130.436 33.994 130.157 33.994ZM133.481 44.8563V35.5458H134.863V36.952H134.96C135.129 36.4914 135.436 36.1176 135.881 35.8307C136.326 35.5437 136.827 35.4003 137.384 35.4003C137.489 35.4003 137.621 35.4023 137.778 35.4063C137.936 35.4104 138.055 35.4165 138.136 35.4245V36.8793C138.087 36.8672 137.976 36.849 137.803 36.8248C137.633 36.7965 137.453 36.7823 137.263 36.7823C136.81 36.7823 136.406 36.8773 136.051 37.0672C135.699 37.2531 135.42 37.5117 135.214 37.8431C135.012 38.1704 134.911 38.5442 134.911 38.9645V44.8563H133.481ZM142.571 45.0745C141.981 45.0745 141.446 44.9634 140.965 44.7412C140.484 44.5149 140.102 44.1896 139.819 43.7652C139.537 43.3369 139.395 42.8196 139.395 42.2135C139.395 41.6801 139.5 41.2477 139.71 40.9163C139.921 40.5809 140.201 40.3182 140.553 40.1283C140.905 39.9384 141.292 39.7969 141.717 39.704C142.145 39.607 142.575 39.5302 143.008 39.4737C143.574 39.4009 144.032 39.3464 144.384 39.31C144.739 39.2696 144.998 39.2029 145.16 39.11C145.325 39.017 145.408 38.8554 145.408 38.625V38.5765C145.408 37.9785 145.245 37.5138 144.917 37.1824C144.594 36.851 144.103 36.6853 143.444 36.6853C142.761 36.6853 142.226 36.8349 141.838 37.1339C141.45 37.4329 141.177 37.7522 141.02 38.0916L139.662 37.6067C139.904 37.0409 140.228 36.6005 140.632 36.2853C141.04 35.966 141.484 35.7438 141.965 35.6185C142.45 35.4892 142.927 35.4245 143.396 35.4245C143.695 35.4245 144.038 35.4609 144.426 35.5336C144.818 35.6023 145.196 35.7458 145.56 35.964C145.928 36.1822 146.233 36.5116 146.475 36.952C146.718 37.3925 146.839 37.9825 146.839 38.722V44.8563H145.408V43.5955H145.336C145.239 43.7976 145.077 44.0138 144.851 44.2441C144.624 44.4744 144.323 44.6704 143.947 44.8321C143.572 44.9937 143.113 45.0745 142.571 45.0745ZM142.79 43.7895C143.355 43.7895 143.832 43.6784 144.22 43.4561C144.612 43.2338 144.907 42.9469 145.105 42.5954C145.307 42.2438 145.408 41.874 145.408 41.4861V40.1768C145.348 40.2495 145.214 40.3162 145.008 40.3768C144.806 40.4334 144.572 40.4839 144.305 40.5284C144.042 40.5688 143.786 40.6051 143.535 40.6375C143.289 40.6658 143.089 40.69 142.935 40.7102C142.563 40.7587 142.216 40.8375 141.893 40.9466C141.573 41.0517 141.315 41.2113 141.117 41.4255C140.923 41.6356 140.826 41.9225 140.826 42.2862C140.826 42.7833 141.01 43.1591 141.377 43.4137C141.749 43.6642 142.22 43.7895 142.79 43.7895ZM153.499 35.5458V36.7581H148.674V35.5458H153.499ZM150.08 33.3151H151.511V42.1892C151.511 42.5933 151.569 42.8964 151.687 43.0985C151.808 43.2965 151.961 43.4298 152.147 43.4985C152.337 43.5632 152.537 43.5955 152.747 43.5955C152.905 43.5955 153.034 43.5874 153.135 43.5713C153.236 43.5511 153.317 43.5349 153.378 43.5228L153.669 44.8078C153.572 44.8442 153.436 44.8806 153.263 44.9169C153.089 44.9573 152.869 44.9776 152.602 44.9776C152.198 44.9776 151.802 44.8907 151.414 44.7169C151.03 44.5431 150.711 44.2785 150.456 43.9228C150.205 43.5672 150.08 43.1187 150.08 42.5772V33.3151ZM155.651 44.8563V35.5458H157.081V44.8563H155.651ZM156.378 33.994C156.099 33.994 155.859 33.899 155.657 33.7091C155.459 33.5192 155.36 33.2909 155.36 33.0242C155.36 32.7574 155.459 32.5291 155.657 32.3392C155.859 32.1493 156.099 32.0543 156.378 32.0543C156.657 32.0543 156.895 32.1493 157.093 32.3392C157.295 32.5291 157.397 32.7574 157.397 33.0242C157.397 33.2909 157.295 33.5192 157.093 33.7091C156.895 33.899 156.657 33.994 156.378 33.994ZM163.484 45.0503C162.643 45.0503 161.906 44.8503 161.271 44.4502C160.641 44.0501 160.148 43.4905 159.792 42.7711C159.441 42.0518 159.265 41.2113 159.265 40.2495C159.265 39.2797 159.441 38.4331 159.792 37.7097C160.148 36.9864 160.641 36.4247 161.271 36.0246C161.906 35.6246 162.643 35.4245 163.484 35.4245C164.324 35.4245 165.06 35.6246 165.69 36.0246C166.325 36.4247 166.818 36.9864 167.169 37.7097C167.525 38.4331 167.703 39.2797 167.703 40.2495C167.703 41.2113 167.525 42.0518 167.169 42.7711C166.818 43.4905 166.325 44.0501 165.69 44.4502C165.06 44.8503 164.324 45.0503 163.484 45.0503ZM163.484 43.7652C164.122 43.7652 164.648 43.6016 165.06 43.2743C165.472 42.9469 165.777 42.5166 165.975 41.9831C166.173 41.4497 166.272 40.8719 166.272 40.2495C166.272 39.6272 166.173 39.0473 165.975 38.5099C165.777 37.9724 165.472 37.538 165.06 37.2066C164.648 36.8753 164.122 36.7096 163.484 36.7096C162.845 36.7096 162.32 36.8753 161.908 37.2066C161.496 37.538 161.191 37.9724 160.993 38.5099C160.795 39.0473 160.696 39.6272 160.696 40.2495C160.696 40.8719 160.795 41.4497 160.993 41.9831C161.191 42.5166 161.496 42.9469 161.908 43.2743C162.32 43.6016 162.845 43.7652 163.484 43.7652ZM171.317 39.2554V44.8563H169.886V35.5458H171.268V37.0005H171.39C171.608 36.5277 171.939 36.1479 172.384 35.861C172.828 35.57 173.402 35.4245 174.105 35.4245C174.736 35.4245 175.287 35.5538 175.76 35.8125C176.233 36.0671 176.601 36.455 176.863 36.9763C177.126 37.4935 177.257 38.1482 177.257 38.9402V44.8563H175.827V39.0372C175.827 38.3058 175.637 37.736 175.257 37.3279C174.877 36.9157 174.356 36.7096 173.693 36.7096C173.236 36.7096 172.828 36.8086 172.469 37.0066C172.113 37.2046 171.832 37.4935 171.626 37.8734C171.42 38.2533 171.317 38.7139 171.317 39.2554Z" fill="#F15BB5"/>
<g clip-path="url(#clip1_110_2489)">
<path d="M18.2865 30.5935C20.7905 30.5935 22.8205 28.5635 22.8205 26.0594C22.8205 23.5553 20.7905 21.5254 18.2865 21.5254C15.7824 21.5254 13.7524 23.5553 13.7524 26.0594C13.7524 28.5635 15.7824 30.5935 18.2865 30.5935Z" stroke="#1E1E1E" stroke-width="4.26734" stroke-linecap="round" stroke-linejoin="round"/>
<path d="M29.4704 30.5935C29.2693 31.0493 29.2092 31.555 29.2981 32.0452C29.387 32.5355 29.6208 32.9879 29.9692 33.3441L30.0599 33.4348C30.3409 33.7155 30.5639 34.0489 30.716 34.4158C30.8681 34.7828 30.9464 35.1761 30.9464 35.5734C30.9464 35.9706 30.8681 36.3639 30.716 36.7309C30.5639 37.0978 30.3409 37.4312 30.0599 37.7119C29.7791 37.993 29.4458 38.2159 29.0788 38.368C28.7119 38.5201 28.3185 38.5984 27.9213 38.5984C27.5241 38.5984 27.1308 38.5201 26.7638 38.368C26.3969 38.2159 26.0635 37.993 25.7828 37.7119L25.6921 37.6212C25.3359 37.2728 24.8835 37.0391 24.3932 36.9502C23.9029 36.8613 23.3973 36.9213 22.9414 37.1225C22.4944 37.3141 22.1132 37.6322 21.8446 38.0377C21.5761 38.4431 21.432 38.9183 21.4301 39.4046V39.6616C21.4301 40.4632 21.1116 41.2321 20.5447 41.7989C19.9779 42.3658 19.209 42.6843 18.4074 42.6843C17.6057 42.6843 16.8369 42.3658 16.27 41.7989C15.7031 41.2321 15.3847 40.4632 15.3847 39.6616V39.5255C15.373 39.0253 15.211 38.5401 14.9199 38.1331C14.6289 37.7261 14.222 37.4161 13.7524 37.2434C13.2966 37.0422 12.7909 36.9822 12.3006 37.0711C11.8104 37.16 11.358 37.3937 11.0018 37.7421L10.9111 37.8328C10.6304 38.1139 10.297 38.3368 9.93003 38.4889C9.56308 38.641 9.16975 38.7193 8.77252 38.7193C8.37529 38.7193 7.98196 38.641 7.61501 38.4889C7.24806 38.3368 6.91469 38.1139 6.63396 37.8328C6.35292 37.5521 6.12997 37.2187 5.97785 36.8518C5.82574 36.4848 5.74744 36.0915 5.74744 35.6943C5.74744 35.297 5.82574 34.9037 5.97785 34.5367C6.12997 34.1698 6.35292 33.8364 6.63396 33.5557L6.72464 33.465C7.07306 33.1088 7.30679 32.6564 7.39569 32.1662C7.48458 31.6759 7.42457 31.1702 7.22339 30.7144C7.0318 30.2674 6.71369 29.8861 6.30821 29.6176C5.90273 29.3491 5.42758 29.205 4.94125 29.203H4.68432C3.88265 29.203 3.11381 28.8846 2.54695 28.3177C1.98008 27.7508 1.66162 26.982 1.66162 26.1803C1.66162 25.3786 1.98008 24.6098 2.54695 24.0429C3.11381 23.4761 3.88265 23.1576 4.68432 23.1576H4.82034C5.32059 23.1459 5.80575 22.984 6.21275 22.6929C6.61974 22.4018 6.92975 21.995 7.10248 21.5254C7.30366 21.0695 7.36367 20.5639 7.27478 20.0736C7.18588 19.5833 6.95215 19.1309 6.60373 18.7747L6.51305 18.684C6.23201 18.4033 6.00906 18.0699 5.85695 17.703C5.70483 17.336 5.62653 16.9427 5.62653 16.5455C5.62653 16.1482 5.70483 15.7549 5.85695 15.388C6.00906 15.021 6.23201 14.6876 6.51305 14.4069C6.79378 14.1259 7.12715 13.9029 7.4941 13.7508C7.86105 13.5987 8.25438 13.5204 8.65161 13.5204C9.04884 13.5204 9.44217 13.5987 9.80912 13.7508C10.1761 13.9029 10.5094 14.1259 10.7902 14.4069L10.8809 14.4976C11.237 14.846 11.6894 15.0797 12.1797 15.1686C12.67 15.2575 13.1757 15.1975 13.6315 14.9963H13.7524C14.1994 14.8048 14.5807 14.4866 14.8492 14.0812C15.1177 13.6757 15.2618 13.2005 15.2638 12.7142V12.4573C15.2638 11.6556 15.5822 10.8868 16.1491 10.3199C16.716 9.75303 17.4848 9.43457 18.2865 9.43457C19.0881 9.43457 19.857 9.75303 20.4238 10.3199C20.9907 10.8868 21.3092 11.6556 21.3092 12.4573V12.5933C21.3111 13.0796 21.4552 13.5548 21.7237 13.9603C21.9923 14.3657 22.3735 14.6838 22.8205 14.8754C23.2764 15.0766 23.782 15.1366 24.2723 15.0477C24.7626 14.9588 25.215 14.7251 25.5712 14.3767L25.6618 14.286C25.9426 14.005 26.2759 13.782 26.6429 13.6299C27.0098 13.4778 27.4032 13.3995 27.8004 13.3995C28.1976 13.3995 28.591 13.4778 28.9579 13.6299C29.3249 13.782 29.6582 14.005 29.939 14.286C30.22 14.5667 30.443 14.9001 30.5951 15.267C30.7472 15.634 30.8255 16.0273 30.8255 16.4246C30.8255 16.8218 30.7472 17.2151 30.5951 17.5821C30.443 17.949 30.22 18.2824 29.939 18.5631L29.8483 18.6538C29.4999 19.01 29.2661 19.4624 29.1772 19.9527C29.0883 20.4429 29.1484 20.9486 29.3495 21.4045V21.5254C29.5411 21.9724 29.8592 22.3536 30.2647 22.6221C30.6702 22.8907 31.1453 23.0348 31.6317 23.0367H31.8886C32.6903 23.0367 33.4591 23.3552 34.026 23.922C34.5928 24.4889 34.9113 25.2577 34.9113 26.0594C34.9113 26.8611 34.5928 27.6299 34.026 28.1968C33.4591 28.7636 32.6903 29.0821 31.8886 29.0821H31.7526C31.2663 29.084 30.7911 29.2282 30.3856 29.4967C29.9801 29.7652 29.662 30.1464 29.4704 30.5935Z" stroke="#1E1E1E" stroke-width="4.26734" stroke-linecap="round" stroke-linejoin="round"/>
</g>
<defs>
<clipPath id="clip0_110_2489">
<rect width="51.2081" height="51.2081" fill="white" transform="matrix(-1 0 0 1 91.8979 0.455322)"/>
</clipPath>
<clipPath id="clip1_110_2489">
<rect width="36.2724" height="36.2724" fill="white" transform="translate(0.150391 7.92322)"/>
</clipPath>
</defs>
</svg>
