<svg width="168" height="52" viewBox="0 0 168 52" fill="none" xmlns="http://www.w3.org/2000/svg">
<g clip-path="url(#clip0_108_3331)">
<path d="M74.8288 11.4476H57.7594C49.5107 11.4476 42.8237 18.1346 42.8237 26.3833C42.8237 34.6321 49.5107 41.319 57.7594 41.319H74.8288C83.0775 41.319 89.7645 34.6321 89.7645 26.3833C89.7645 18.1346 83.0775 11.4476 74.8288 11.4476Z" stroke="#1E1E1E" stroke-width="4.26734" stroke-linecap="round" stroke-linejoin="round"/>
<path d="M57.7594 32.7843C61.2946 32.7843 64.1604 29.9185 64.1604 26.3833C64.1604 22.8481 61.2946 19.9823 57.7594 19.9823C54.2242 19.9823 51.3584 22.8481 51.3584 26.3833C51.3584 29.9185 54.2242 32.7843 57.7594 32.7843Z" stroke="#1E1E1E" stroke-width="4.26734" stroke-linecap="round" stroke-linejoin="round"/>
</g>
<path d="M106.592 14.8697C106.519 14.2555 106.224 13.7787 105.707 13.4392C105.189 13.0998 104.555 12.93 103.803 12.93C103.254 12.93 102.773 13.0189 102.361 13.1967C101.952 13.3746 101.633 13.619 101.403 13.9302C101.177 14.2414 101.063 14.5949 101.063 14.991C101.063 15.3223 101.142 15.6072 101.3 15.8457C101.461 16.08 101.668 16.276 101.918 16.4336C102.169 16.5872 102.431 16.7145 102.706 16.8155C102.981 16.9125 103.233 16.9913 103.464 17.0519L104.725 17.3913C105.048 17.4762 105.408 17.5934 105.804 17.7429C106.204 17.8924 106.585 18.0965 106.949 18.3551C107.317 18.6097 107.62 18.937 107.858 19.3371C108.097 19.7372 108.216 20.2282 108.216 20.8101C108.216 21.4809 108.04 22.087 107.689 22.6285C107.341 23.17 106.832 23.6004 106.161 23.9197C105.494 24.2389 104.684 24.3985 103.73 24.3985C102.841 24.3985 102.072 24.2551 101.421 23.9681C100.774 23.6812 100.265 23.2812 99.8935 22.768C99.5258 22.2547 99.3177 21.6587 99.2692 20.9798H100.821C100.861 21.4486 101.019 21.8365 101.294 22.1436C101.573 22.4467 101.924 22.673 102.348 22.8225C102.777 22.968 103.237 23.0407 103.73 23.0407C104.304 23.0407 104.82 22.9478 105.276 22.7619C105.733 22.572 106.094 22.3093 106.361 21.9739C106.628 21.6344 106.761 21.2384 106.761 20.7858C106.761 20.3736 106.646 20.0382 106.416 19.7796C106.185 19.521 105.882 19.3108 105.507 19.1492C105.131 18.9876 104.725 18.8461 104.288 18.7249L102.761 18.2885C101.791 18.0096 101.023 17.6116 100.457 17.0943C99.8915 16.5771 99.6086 15.9002 99.6086 15.0637C99.6086 14.3686 99.7965 13.7625 100.172 13.2452C100.552 12.7239 101.061 12.3198 101.7 12.0329C102.342 11.742 103.06 11.5965 103.852 11.5965C104.652 11.5965 105.363 11.74 105.985 12.0269C106.608 12.3097 107.101 12.6977 107.464 13.1907C107.832 13.6837 108.026 14.2434 108.046 14.8697H106.592ZM114.276 24.3743C113.436 24.3743 112.698 24.1742 112.064 23.7742C111.433 23.3741 110.94 22.8144 110.585 22.0951C110.233 21.3758 110.057 20.5353 110.057 19.5735C110.057 18.6037 110.233 17.7571 110.585 17.0337C110.94 16.3104 111.433 15.7487 112.064 15.3486C112.698 14.9485 113.436 14.7485 114.276 14.7485C115.117 14.7485 115.852 14.9485 116.482 15.3486C117.117 15.7487 117.61 16.3104 117.962 17.0337C118.317 17.7571 118.495 18.6037 118.495 19.5735C118.495 20.5353 118.317 21.3758 117.962 22.0951C117.61 22.8144 117.117 23.3741 116.482 23.7742C115.852 24.1742 115.117 24.3743 114.276 24.3743ZM114.276 23.0892C114.915 23.0892 115.44 22.9256 115.852 22.5982C116.264 22.2709 116.569 21.8405 116.767 21.3071C116.965 20.7737 117.064 20.1958 117.064 19.5735C117.064 18.9512 116.965 18.3713 116.767 17.8338C116.569 17.2964 116.264 16.862 115.852 16.5306C115.44 16.1992 114.915 16.0336 114.276 16.0336C113.638 16.0336 113.112 16.1992 112.7 16.5306C112.288 16.862 111.983 17.2964 111.785 17.8338C111.587 18.3713 111.488 18.9512 111.488 19.5735C111.488 20.1958 111.587 20.7737 111.785 21.3071C111.983 21.8405 112.288 22.2709 112.7 22.5982C113.112 22.9256 113.638 23.0892 114.276 23.0892ZM120.679 24.1803V14.8697H122.061V16.276H122.158C122.327 15.8153 122.634 15.4415 123.079 15.1546C123.523 14.8677 124.025 14.7243 124.582 14.7243C124.687 14.7243 124.819 14.7263 124.976 14.7303C125.134 14.7344 125.253 14.7404 125.334 14.7485V16.2033C125.285 16.1912 125.174 16.173 125 16.1487C124.831 16.1204 124.651 16.1063 124.461 16.1063C124.008 16.1063 123.604 16.2013 123.249 16.3912C122.897 16.5771 122.618 16.8357 122.412 17.1671C122.21 17.4944 122.109 17.8682 122.109 18.2885V24.1803H120.679ZM131.662 14.8697V16.0821H126.837V14.8697H131.662ZM128.243 12.6391H129.674V21.5132C129.674 21.9173 129.733 22.2204 129.85 22.4224C129.971 22.6205 130.125 22.7538 130.31 22.8225C130.5 22.8872 130.7 22.9195 130.911 22.9195C131.068 22.9195 131.197 22.9114 131.298 22.8952C131.399 22.875 131.48 22.8589 131.541 22.8468L131.832 24.1318C131.735 24.1682 131.6 24.2045 131.426 24.2409C131.252 24.2813 131.032 24.3015 130.765 24.3015C130.361 24.3015 129.965 24.2146 129.577 24.0409C129.193 23.8671 128.874 23.6024 128.619 23.2468C128.369 22.8912 128.243 22.4427 128.243 21.9012V12.6391ZM138.809 24.1803V11.7662H140.239V16.3488H140.36C140.466 16.1871 140.611 15.981 140.797 15.7305C140.987 15.4759 141.258 15.2496 141.609 15.0516C141.965 14.8495 142.446 14.7485 143.052 14.7485C143.836 14.7485 144.527 14.9445 145.125 15.3365C145.723 15.7285 146.19 16.2841 146.525 17.0034C146.861 17.7227 147.028 18.5713 147.028 19.5493C147.028 20.5353 146.861 21.39 146.525 22.1133C146.19 22.8326 145.725 23.3903 145.131 23.7863C144.537 24.1783 143.852 24.3743 143.076 24.3743C142.478 24.3743 141.999 24.2753 141.639 24.0773C141.28 23.8752 141.003 23.6469 140.809 23.3923C140.615 23.1337 140.466 22.9195 140.36 22.7498H140.191V24.1803H138.809ZM140.215 19.525C140.215 20.2282 140.318 20.8485 140.524 21.3859C140.73 21.9193 141.031 22.3376 141.427 22.6407C141.823 22.9397 142.308 23.0892 142.882 23.0892C143.48 23.0892 143.979 22.9316 144.379 22.6164C144.783 22.2972 145.086 21.8688 145.289 21.3314C145.495 20.7899 145.598 20.1877 145.598 19.525C145.598 18.8704 145.497 18.2804 145.295 17.755C145.097 17.2257 144.796 16.8074 144.391 16.5003C143.991 16.1891 143.488 16.0336 142.882 16.0336C142.3 16.0336 141.811 16.1811 141.415 16.4761C141.019 16.767 140.72 17.1752 140.518 17.7005C140.316 18.2218 140.215 18.83 140.215 19.525ZM149.804 27.6718C149.562 27.6718 149.346 27.6516 149.156 27.6111C148.966 27.5748 148.835 27.5384 148.762 27.502L149.126 26.2412C149.473 26.3301 149.78 26.3625 150.047 26.3382C150.314 26.314 150.55 26.1948 150.756 25.9806C150.966 25.7704 151.158 25.429 151.332 24.9562L151.599 24.2288L148.156 14.8697H149.707L152.278 22.2891H152.375L154.945 14.8697H156.496L152.544 25.5381C152.366 26.019 152.146 26.417 151.884 26.7322C151.621 27.0515 151.316 27.2879 150.968 27.4414C150.625 27.595 150.237 27.6718 149.804 27.6718ZM159.427 24.2773C159.128 24.2773 158.871 24.1702 158.657 23.956C158.443 23.7418 158.336 23.4852 158.336 23.1862C158.336 22.8872 158.443 22.6306 158.657 22.4164C158.871 22.2022 159.128 22.0951 159.427 22.0951C159.726 22.0951 159.983 22.2022 160.197 22.4164C160.411 22.6306 160.518 22.8872 160.518 23.1862C160.518 23.3842 160.468 23.5661 160.367 23.7317C160.27 23.8974 160.138 24.0308 159.973 24.1318C159.811 24.2288 159.629 24.2773 159.427 24.2773ZM159.427 17.3671C159.128 17.3671 158.871 17.26 158.657 17.0458C158.443 16.8317 158.336 16.5751 158.336 16.276C158.336 15.977 158.443 15.7204 158.657 15.5062C158.871 15.292 159.128 15.1849 159.427 15.1849C159.726 15.1849 159.983 15.292 160.197 15.5062C160.411 15.7204 160.518 15.977 160.518 16.276C160.518 16.474 160.468 16.6559 160.367 16.8216C160.27 16.9872 160.138 17.1206 159.973 17.2216C159.811 17.3186 159.629 17.3671 159.427 17.3671Z" fill="black"/>
<path d="M103.633 45.1803H99.8026V32.7662H103.803C105.007 32.7662 106.038 33.0147 106.895 33.5118C107.751 34.0048 108.408 34.714 108.865 35.6394C109.321 36.5608 109.55 37.664 109.55 38.949C109.55 40.2421 109.319 41.3555 108.859 42.2889C108.398 43.2184 107.727 43.9336 106.846 44.4347C105.965 44.9318 104.894 45.1803 103.633 45.1803ZM101.306 43.8468H103.537C104.563 43.8468 105.414 43.6487 106.088 43.2527C106.763 42.8567 107.266 42.293 107.598 41.5615C107.929 40.8301 108.095 39.9593 108.095 38.949C108.095 37.9468 107.931 37.0841 107.604 36.3607C107.276 35.6333 106.788 35.0757 106.137 34.6877C105.486 34.2958 104.676 34.0998 103.706 34.0998H101.306V43.8468ZM111.877 45.1803V35.8697H113.308V45.1803H111.877ZM112.605 34.318C112.326 34.318 112.085 34.223 111.883 34.0331C111.685 33.8432 111.586 33.6148 111.586 33.3481C111.586 33.0814 111.685 32.8531 111.883 32.6632C112.085 32.4732 112.326 32.3783 112.605 32.3783C112.883 32.3783 113.122 32.4732 113.32 32.6632C113.522 32.8531 113.623 33.0814 113.623 33.3481C113.623 33.6148 113.522 33.8432 113.32 34.0331C113.122 34.223 112.883 34.318 112.605 34.318ZM122.523 37.9549L121.238 38.3186C121.157 38.1044 121.038 37.8963 120.88 37.6943C120.727 37.4882 120.516 37.3185 120.25 37.1851C119.983 37.0517 119.642 36.9851 119.225 36.9851C118.656 36.9851 118.181 37.1164 117.801 37.3791C117.425 37.6377 117.237 37.967 117.237 38.3671C117.237 38.7227 117.366 39.0036 117.625 39.2097C117.884 39.4158 118.288 39.5875 118.837 39.7249L120.219 40.0643C121.052 40.2664 121.672 40.5755 122.08 40.9918C122.488 41.4039 122.693 41.9353 122.693 42.5859C122.693 43.1194 122.539 43.5962 122.232 44.0165C121.929 44.4367 121.504 44.7681 120.959 45.0106C120.413 45.253 119.779 45.3743 119.056 45.3743C118.106 45.3743 117.32 45.1682 116.698 44.756C116.075 44.3438 115.681 43.7417 115.516 42.9496L116.873 42.6102C117.003 43.1113 117.247 43.4871 117.607 43.7376C117.971 43.9882 118.445 44.1135 119.031 44.1135C119.698 44.1135 120.228 43.972 120.62 43.6892C121.016 43.4022 121.214 43.0588 121.214 42.6587C121.214 42.3354 121.1 42.0647 120.874 41.8464C120.648 41.6242 120.3 41.4585 119.831 41.3494L118.28 40.9857C117.427 40.7836 116.801 40.4705 116.401 40.0462C116.005 39.6178 115.807 39.0824 115.807 38.4398C115.807 37.9145 115.954 37.4498 116.249 37.0457C116.548 36.6416 116.954 36.3244 117.467 36.094C117.985 35.8637 118.571 35.7485 119.225 35.7485C120.147 35.7485 120.87 35.9506 121.395 36.3547C121.925 36.7588 122.301 37.2922 122.523 37.9549ZM128.895 35.8697V37.0821H124.07V35.8697H128.895ZM125.476 33.6391H126.907V42.5132C126.907 42.9173 126.965 43.2204 127.083 43.4224C127.204 43.6205 127.357 43.7538 127.543 43.8225C127.733 43.8872 127.933 43.9195 128.143 43.9195C128.301 43.9195 128.43 43.9114 128.531 43.8952C128.632 43.875 128.713 43.8589 128.774 43.8468L129.065 45.1318C128.968 45.1682 128.832 45.2045 128.659 45.2409C128.485 45.2813 128.265 45.3015 127.998 45.3015C127.594 45.3015 127.198 45.2146 126.81 45.0409C126.426 44.8671 126.107 44.6024 125.852 44.2468C125.602 43.8912 125.476 43.4427 125.476 42.9012V33.6391ZM133.787 45.3985C133.197 45.3985 132.661 45.2874 132.18 45.0651C131.7 44.8388 131.318 44.5135 131.035 44.0892C130.752 43.6609 130.61 43.1436 130.61 42.5375C130.61 42.004 130.716 41.5716 130.926 41.2403C131.136 40.9049 131.417 40.6422 131.768 40.4523C132.12 40.2624 132.508 40.1209 132.932 40.028C133.36 39.931 133.791 39.8542 134.223 39.7976C134.789 39.7249 135.248 39.6703 135.599 39.634C135.955 39.5936 136.213 39.5269 136.375 39.4339C136.541 39.341 136.624 39.1794 136.624 38.949V38.9005C136.624 38.3024 136.46 37.8377 136.133 37.5064C135.809 37.175 135.318 37.0093 134.66 37.0093C133.977 37.0093 133.441 37.1588 133.053 37.4579C132.665 37.7569 132.393 38.0761 132.235 38.4156L130.877 37.9307C131.12 37.3649 131.443 36.9245 131.847 36.6092C132.255 36.29 132.7 36.0678 133.181 35.9425C133.665 35.8132 134.142 35.7485 134.611 35.7485C134.91 35.7485 135.254 35.7849 135.642 35.8576C136.034 35.9263 136.411 36.0698 136.775 36.288C137.143 36.5062 137.448 36.8355 137.69 37.276C137.933 37.7165 138.054 38.3065 138.054 39.046V45.1803H136.624V43.9195H136.551C136.454 44.1215 136.292 44.3377 136.066 44.5681C135.84 44.7984 135.539 44.9944 135.163 45.1561C134.787 45.3177 134.328 45.3985 133.787 45.3985ZM134.005 44.1135C134.571 44.1135 135.048 44.0023 135.435 43.7801C135.827 43.5578 136.122 43.2709 136.32 42.9193C136.523 42.5678 136.624 42.198 136.624 41.8101V40.5008C136.563 40.5735 136.43 40.6402 136.223 40.7008C136.021 40.7574 135.787 40.8079 135.52 40.8523C135.258 40.8928 135.001 40.9291 134.751 40.9615C134.504 40.9897 134.304 41.014 134.15 41.0342C133.779 41.0827 133.431 41.1615 133.108 41.2706C132.789 41.3757 132.53 41.5353 132.332 41.7495C132.138 41.9596 132.041 42.2465 132.041 42.6102C132.041 43.1072 132.225 43.4831 132.593 43.7376C132.964 43.9882 133.435 44.1135 134.005 44.1135ZM142.096 39.5794V45.1803H140.665V35.8697H142.047V37.3245H142.168C142.387 36.8517 142.718 36.4719 143.162 36.1849C143.607 35.894 144.181 35.7485 144.884 35.7485C145.514 35.7485 146.066 35.8778 146.539 36.1364C147.012 36.391 147.379 36.779 147.642 37.3003C147.905 37.8175 148.036 38.4722 148.036 39.2642V45.1803H146.605V39.3612C146.605 38.6298 146.415 38.06 146.036 37.6518C145.656 37.2397 145.134 37.0336 144.472 37.0336C144.015 37.0336 143.607 37.1326 143.247 37.3306C142.892 37.5286 142.611 37.8175 142.405 38.1974C142.199 38.5772 142.096 39.0379 142.096 39.5794ZM154.432 45.3743C153.56 45.3743 152.808 45.1682 152.178 44.756C151.547 44.3438 151.062 43.776 150.723 43.0527C150.383 42.3293 150.214 41.503 150.214 40.5735C150.214 39.6279 150.387 38.7934 150.735 38.0701C151.086 37.3427 151.575 36.7749 152.202 36.3668C152.832 35.9546 153.568 35.7485 154.408 35.7485C155.063 35.7485 155.653 35.8697 156.178 36.1122C156.703 36.3547 157.134 36.6941 157.469 37.1305C157.805 37.567 158.013 38.0761 158.094 38.6581H156.663C156.554 38.2337 156.311 37.8579 155.936 37.5306C155.564 37.1992 155.063 37.0336 154.432 37.0336C153.875 37.0336 153.386 37.179 152.966 37.47C152.549 37.7569 152.224 38.163 151.99 38.6884C151.759 39.2097 151.644 39.8219 151.644 40.525C151.644 41.2443 151.757 41.8707 151.984 42.4041C152.214 42.9375 152.537 43.3517 152.953 43.6467C153.374 43.9417 153.867 44.0892 154.432 44.0892C154.804 44.0892 155.142 44.0246 155.445 43.8952C155.748 43.7659 156.004 43.58 156.215 43.3376C156.425 43.0951 156.574 42.8042 156.663 42.4647H158.094C158.013 43.0143 157.813 43.5093 157.493 43.9498C157.178 44.3862 156.76 44.7338 156.239 44.9924C155.721 45.247 155.119 45.3743 154.432 45.3743ZM164.088 45.3743C163.191 45.3743 162.418 45.1763 161.767 44.7802C161.12 44.3802 160.621 43.8225 160.27 43.1072C159.922 42.3879 159.748 41.5514 159.748 40.5978C159.748 39.6441 159.922 38.8035 160.27 38.0761C160.621 37.3447 161.11 36.7749 161.737 36.3668C162.367 35.9546 163.102 35.7485 163.943 35.7485C164.428 35.7485 164.907 35.8293 165.38 35.991C165.852 36.1526 166.283 36.4153 166.671 36.779C167.059 37.1386 167.368 37.6155 167.598 38.2095C167.828 38.8035 167.944 39.535 167.944 40.4038V41.0099H160.767V39.7734H166.489C166.489 39.248 166.384 38.7793 166.174 38.3671C165.968 37.9549 165.673 37.6296 165.289 37.3912C164.909 37.1528 164.46 37.0336 163.943 37.0336C163.373 37.0336 162.88 37.175 162.464 37.4579C162.052 37.7367 161.735 38.1004 161.512 38.5489C161.29 38.9975 161.179 39.4784 161.179 39.9916V40.816C161.179 41.5191 161.3 42.1152 161.543 42.6041C161.789 43.0891 162.131 43.4588 162.567 43.7134C163.003 43.9639 163.511 44.0892 164.088 44.0892C164.464 44.0892 164.804 44.0367 165.107 43.9316C165.414 43.8225 165.679 43.6609 165.901 43.4467C166.123 43.2285 166.295 42.9577 166.416 42.6344L167.798 43.0224C167.653 43.4911 167.408 43.9033 167.065 44.2589C166.721 44.6105 166.297 44.8853 165.792 45.0833C165.287 45.2773 164.719 45.3743 164.088 45.3743Z" fill="#5D3889"/>
<g clip-path="url(#clip1_108_3331)">
<path d="M18.2865 30.9173C20.7905 30.9173 22.8205 28.8873 22.8205 26.3833C22.8205 23.8792 20.7905 21.8492 18.2865 21.8492C15.7824 21.8492 13.7524 23.8792 13.7524 26.3833C13.7524 28.8873 15.7824 30.9173 18.2865 30.9173Z" stroke="#1E1E1E" stroke-width="4.26734" stroke-linecap="round" stroke-linejoin="round"/>
<path d="M29.4704 30.9173C29.2693 31.3732 29.2092 31.8788 29.2981 32.3691C29.387 32.8594 29.6208 33.3118 29.9692 33.668L30.0599 33.7586C30.3409 34.0394 30.5639 34.3727 30.716 34.7397C30.8681 35.1066 30.9464 35.5 30.9464 35.8972C30.9464 36.2944 30.8681 36.6878 30.716 37.0547C30.5639 37.4217 30.3409 37.755 30.0599 38.0358C29.7791 38.3168 29.4458 38.5398 29.0788 38.6919C28.7119 38.844 28.3185 38.9223 27.9213 38.9223C27.5241 38.9223 27.1308 38.844 26.7638 38.6919C26.3969 38.5398 26.0635 38.3168 25.7828 38.0358L25.6921 37.9451C25.3359 37.5967 24.8835 37.3629 24.3932 37.274C23.9029 37.1851 23.3973 37.2452 22.9414 37.4463C22.4944 37.6379 22.1132 37.956 21.8446 38.3615C21.5761 38.767 21.432 39.2421 21.4301 39.7285V39.9854C21.4301 40.7871 21.1116 41.5559 20.5447 42.1228C19.9779 42.6896 19.209 43.0081 18.4074 43.0081C17.6057 43.0081 16.8369 42.6896 16.27 42.1228C15.7031 41.5559 15.3847 40.7871 15.3847 39.9854V39.8494C15.373 39.3491 15.211 38.864 14.9199 38.457C14.6289 38.05 14.222 37.74 13.7524 37.5672C13.2966 37.3661 12.7909 37.3061 12.3006 37.3949C11.8104 37.4838 11.358 37.7176 11.0018 38.066L10.9111 38.1567C10.6304 38.4377 10.297 38.6607 9.93003 38.8128C9.56308 38.9649 9.16975 39.0432 8.77252 39.0432C8.37529 39.0432 7.98196 38.9649 7.61501 38.8128C7.24806 38.6607 6.91469 38.4377 6.63396 38.1567C6.35292 37.8759 6.12997 37.5426 5.97785 37.1756C5.82574 36.8087 5.74744 36.4153 5.74744 36.0181C5.74744 35.6209 5.82574 35.2276 5.97785 34.8606C6.12997 34.4937 6.35292 34.1603 6.63396 33.8796L6.72464 33.7889C7.07306 33.4327 7.30679 32.9803 7.39569 32.49C7.48458 31.9997 7.42457 31.4941 7.22339 31.0382C7.0318 30.5912 6.71369 30.21 6.30821 29.9414C5.90273 29.6729 5.42758 29.5288 4.94125 29.5269H4.68432C3.88265 29.5269 3.11381 29.2084 2.54695 28.6415C1.98008 28.0747 1.66162 27.3058 1.66162 26.5042C1.66162 25.7025 1.98008 24.9337 2.54695 24.3668C3.11381 23.7999 3.88265 23.4815 4.68432 23.4815H4.82034C5.32059 23.4698 5.80575 23.3078 6.21275 23.0167C6.61974 22.7257 6.92975 22.3188 7.10248 21.8492C7.30366 21.3934 7.36367 20.8877 7.27478 20.3974C7.18588 19.9072 6.95215 19.4548 6.60373 19.0986L6.51305 19.0079C6.23201 18.7272 6.00906 18.3938 5.85695 18.0268C5.70483 17.6599 5.62653 17.2666 5.62653 16.8693C5.62653 16.4721 5.70483 16.0788 5.85695 15.7118C6.00906 15.3449 6.23201 15.0115 6.51305 14.7308C6.79378 14.4497 7.12715 14.2268 7.4941 14.0747C7.86105 13.9225 8.25438 13.8442 8.65161 13.8442C9.04884 13.8442 9.44217 13.9225 9.80912 14.0747C10.1761 14.2268 10.5094 14.4497 10.7902 14.7308L10.8809 14.8214C11.237 15.1699 11.6894 15.4036 12.1797 15.4925C12.67 15.5814 13.1757 15.5214 13.6315 15.3202H13.7524C14.1994 15.1286 14.5807 14.8105 14.8492 14.405C15.1177 13.9995 15.2618 13.5244 15.2638 13.0381V12.7811C15.2638 11.9795 15.5822 11.2106 16.1491 10.6438C16.716 10.0769 17.4848 9.75842 18.2865 9.75842C19.0881 9.75842 19.857 10.0769 20.4238 10.6438C20.9907 11.2106 21.3092 11.9795 21.3092 12.7811V12.9171C21.3111 13.4035 21.4552 13.8786 21.7237 14.2841C21.9923 14.6896 22.3735 15.0077 22.8205 15.1993C23.2764 15.4005 23.782 15.4605 24.2723 15.3716C24.7626 15.2827 25.215 15.049 25.5712 14.7005L25.6618 14.6099C25.9426 14.3288 26.2759 14.1059 26.6429 13.9537C27.0098 13.8016 27.4032 13.7233 27.8004 13.7233C28.1976 13.7233 28.591 13.8016 28.9579 13.9537C29.3249 14.1059 29.6582 14.3288 29.939 14.6099C30.22 14.8906 30.443 15.224 30.5951 15.5909C30.7472 15.9578 30.8255 16.3512 30.8255 16.7484C30.8255 17.1456 30.7472 17.539 30.5951 17.9059C30.443 18.2729 30.22 18.6062 29.939 18.887L29.8483 18.9777C29.4999 19.3338 29.2661 19.7862 29.1772 20.2765C29.0883 20.7668 29.1484 21.2725 29.3495 21.7283V21.8492C29.5411 22.2962 29.8592 22.6775 30.2647 22.946C30.6702 23.2145 31.1453 23.3586 31.6317 23.3606H31.8886C32.6903 23.3606 33.4591 23.679 34.026 24.2459C34.5928 24.8128 34.9113 25.5816 34.9113 26.3833C34.9113 27.1849 34.5928 27.9538 34.026 28.5206C33.4591 29.0875 32.6903 29.406 31.8886 29.406H31.7526C31.2663 29.4079 30.7911 29.552 30.3856 29.8205C29.9801 30.0891 29.662 30.4703 29.4704 30.9173Z" stroke="#1E1E1E" stroke-width="4.26734" stroke-linecap="round" stroke-linejoin="round"/>
</g>
<defs>
<clipPath id="clip0_108_3331">
<rect width="51.2081" height="51.2081" fill="white" transform="translate(40.6899 0.779297)"/>
</clipPath>
<clipPath id="clip1_108_3331">
<rect width="36.2724" height="36.2724" fill="white" transform="translate(0.150391 8.24719)"/>
</clipPath>
</defs>
</svg>
