<svg width="35" height="38" viewBox="0 0 35 38" fill="none" xmlns="http://www.w3.org/2000/svg">
<path d="M20.6484 33.7396C20.3592 34.2381 19.9442 34.6518 19.4449 34.9395C18.9455 35.2271 18.3793 35.3785 17.8031 35.3785C17.2268 35.3785 16.6606 35.2271 16.1613 34.9395C15.6619 34.6518 15.2469 34.2381 14.9577 33.7396M27.6713 12.3585C27.6713 9.74124 26.6316 7.23122 24.781 5.38057C22.9303 3.52992 20.4203 2.49023 17.8031 2.49023C15.1858 2.49023 12.6758 3.52992 10.8252 5.38057C8.97453 7.23122 7.93484 9.74124 7.93484 12.3585C7.93484 23.8714 3.00073 27.1608 3.00073 27.1608H32.6054C32.6054 27.1608 27.6713 23.8714 27.6713 12.3585Z" stroke="#5D3889" stroke-width="4.26734" stroke-linecap="round" stroke-linejoin="round"/>
</svg>
